<?xml version="1.0" encoding="UTF-8"?>
<svg xmlns="http://www.w3.org/2000/svg" xmlns:xlink="http://www.w3.org/1999/xlink" width="56px" height="56px" viewBox="0 0 56 56" version="1.1">
<g id="surface1">
<path style=" stroke:none;fill-rule:evenodd;fill:rgb(94.901961%,0%,0%);fill-opacity:1;" d="M 5.234375 22.746094 L 11.195312 22.746094 C 11.667969 22.746094 12.046875 23.132812 12.046875 23.601562 L 12.046875 24.878906 L 5.234375 24.878906 C 4.765625 24.878906 4.382812 24.496094 4.382812 24.027344 L 4.382812 23.601562 C 4.382812 23.128906 4.769531 22.746094 5.234375 22.746094 Z M 5.234375 22.746094 "/>
<path style=" stroke:none;fill-rule:nonzero;fill:rgb(94.901961%,0%,0%);fill-opacity:1;" d="M 6.332031 32.460938 L 6.332031 22.753906 L 11.4375 22.753906 C 12.753906 22.753906 13.726562 22.988281 14.363281 23.460938 C 15 23.933594 15.316406 24.542969 15.316406 25.289062 C 15.316406 25.78125 15.179688 26.21875 14.910156 26.601562 C 14.644531 26.980469 14.261719 27.28125 13.757812 27.5 C 13.257812 27.71875 12.644531 27.828125 11.925781 27.828125 L 12.199219 27.117188 C 12.929688 27.117188 13.558594 27.21875 14.097656 27.433594 C 14.632812 27.644531 15.042969 27.949219 15.339844 28.347656 C 15.636719 28.746094 15.78125 29.226562 15.78125 29.792969 C 15.78125 30.632812 15.4375 31.289062 14.742188 31.761719 C 14.050781 32.230469 13.042969 32.464844 11.714844 32.464844 L 6.335938 32.464844 Z M 9.351562 30.296875 L 11.460938 30.296875 C 11.863281 30.296875 12.171875 30.222656 12.375 30.085938 C 12.578125 29.941406 12.683594 29.726562 12.683594 29.445312 C 12.683594 29.160156 12.578125 28.949219 12.375 28.804688 C 12.171875 28.660156 11.863281 28.589844 11.460938 28.589844 L 9.140625 28.589844 L 9.140625 26.53125 L 11.023438 26.53125 C 11.433594 26.53125 11.730469 26.464844 11.929688 26.324219 C 12.125 26.183594 12.21875 25.984375 12.21875 25.722656 C 12.21875 25.453125 12.125 25.253906 11.929688 25.117188 C 11.730469 24.980469 11.433594 24.914062 11.023438 24.914062 L 9.351562 24.914062 Z M 9.351562 30.296875 "/>
<path style=" stroke:none;fill-rule:nonzero;fill:rgb(94.901961%,0%,0%);fill-opacity:1;" d="M 16.933594 32.460938 L 16.933594 24.898438 L 19.871094 24.898438 L 19.871094 32.460938 Z M 18.394531 24.199219 C 17.855469 24.199219 17.429688 24.054688 17.105469 23.765625 C 16.78125 23.472656 16.621094 23.113281 16.621094 22.683594 C 16.621094 22.253906 16.78125 21.890625 17.105469 21.605469 C 17.429688 21.3125 17.859375 21.167969 18.394531 21.167969 C 18.9375 21.167969 19.363281 21.304688 19.6875 21.574219 C 20.011719 21.847656 20.171875 22.199219 20.171875 22.632812 C 20.171875 23.089844 20.011719 23.464844 19.6875 23.757812 C 19.363281 24.050781 18.933594 24.199219 18.394531 24.199219 Z M 18.394531 24.199219 "/>
<path style=" stroke:none;fill-rule:nonzero;fill:rgb(94.901961%,0%,0%);fill-opacity:1;" d="M 21.0625 32.460938 L 21.0625 30.761719 L 25.179688 26.121094 L 25.667969 27.058594 L 21.171875 27.058594 L 21.171875 24.898438 L 28.042969 24.898438 L 28.042969 26.601562 L 23.929688 31.238281 L 23.441406 30.300781 L 28.191406 30.300781 L 28.191406 32.460938 Z M 21.0625 32.460938 "/>
<path style=" stroke:none;fill-rule:nonzero;fill:rgb(94.901961%,0%,0%);fill-opacity:1;" d="M 33.152344 32.59375 C 32.296875 32.59375 31.535156 32.429688 30.867188 32.097656 C 30.203125 31.765625 29.679688 31.300781 29.300781 30.707031 C 28.921875 30.117188 28.730469 29.4375 28.730469 28.675781 C 28.730469 27.910156 28.921875 27.234375 29.300781 26.648438 C 29.679688 26.058594 30.199219 25.601562 30.867188 25.269531 C 31.535156 24.9375 32.296875 24.773438 33.152344 24.773438 C 34.046875 24.773438 34.820312 24.964844 35.460938 25.347656 C 36.105469 25.730469 36.550781 26.265625 36.804688 26.949219 L 34.53125 28.085938 C 34.363281 27.730469 34.160156 27.476562 33.921875 27.320312 C 33.679688 27.160156 33.421875 27.078125 33.136719 27.078125 C 32.875 27.078125 32.636719 27.140625 32.421875 27.265625 C 32.199219 27.382812 32.027344 27.5625 31.898438 27.800781 C 31.773438 28.035156 31.707031 28.332031 31.707031 28.683594 C 31.707031 29.035156 31.773438 29.335938 31.898438 29.570312 C 32.027344 29.8125 32.199219 29.992188 32.421875 30.117188 C 32.640625 30.234375 32.878906 30.300781 33.136719 30.300781 C 33.421875 30.300781 33.679688 30.21875 33.921875 30.0625 C 34.160156 29.902344 34.363281 29.652344 34.53125 29.296875 L 36.804688 30.433594 C 36.546875 31.117188 36.101562 31.648438 35.460938 32.03125 C 34.816406 32.414062 34.046875 32.609375 33.152344 32.609375 Z M 33.152344 32.59375 "/>
<path style=" stroke:none;fill-rule:nonzero;fill:rgb(94.901961%,0%,0%);fill-opacity:1;" d="M 42.226562 32.460938 L 42.226562 31.09375 L 42.023438 30.738281 L 42.023438 28.175781 C 42.023438 27.789062 41.902344 27.488281 41.667969 27.28125 C 41.429688 27.070312 41.046875 26.96875 40.523438 26.96875 C 40.171875 26.96875 39.816406 27.023438 39.457031 27.132812 C 39.097656 27.238281 38.792969 27.390625 38.535156 27.585938 L 37.585938 25.632812 C 38.019531 25.351562 38.542969 25.136719 39.15625 24.988281 C 39.769531 24.839844 40.367188 24.765625 40.960938 24.765625 C 42.230469 24.765625 43.214844 25.050781 43.914062 25.625 C 44.617188 26.195312 44.964844 27.105469 44.964844 28.339844 L 44.964844 32.457031 L 42.226562 32.457031 Z M 40.050781 32.59375 C 39.441406 32.59375 38.925781 32.488281 38.507812 32.28125 C 38.09375 32.070312 37.777344 31.789062 37.558594 31.4375 C 37.34375 31.085938 37.238281 30.6875 37.238281 30.257812 C 37.238281 29.777344 37.359375 29.367188 37.605469 29.023438 C 37.847656 28.683594 38.21875 28.425781 38.726562 28.242188 C 39.230469 28.0625 39.875 27.976562 40.65625 27.976562 L 42.320312 27.976562 L 42.320312 29.4375 L 41.105469 29.4375 C 40.730469 29.4375 40.46875 29.496094 40.308594 29.613281 C 40.148438 29.730469 40.066406 29.898438 40.066406 30.125 C 40.066406 30.320312 40.144531 30.480469 40.296875 30.605469 C 40.449219 30.726562 40.652344 30.792969 40.914062 30.792969 C 41.160156 30.792969 41.382812 30.726562 41.589844 30.605469 C 41.792969 30.476562 41.941406 30.28125 42.03125 30.011719 L 42.421875 30.957031 C 42.292969 31.5 42.03125 31.910156 41.636719 32.183594 C 41.238281 32.457031 40.714844 32.59375 40.058594 32.59375 Z M 40.050781 32.59375 "/>
<path style=" stroke:none;fill-rule:nonzero;fill:rgb(94.901961%,0%,0%);fill-opacity:1;" d="M 46.441406 22.167969 L 49.378906 22.167969 L 49.378906 32.460938 L 46.441406 32.460938 Z M 46.441406 22.167969 "/>
</g>
</svg>
