<?xml version="1.0" encoding="UTF-8"?>
<svg xmlns="http://www.w3.org/2000/svg" xmlns:xlink="http://www.w3.org/1999/xlink" width="101px" height="24px" viewBox="0 0 100 24" version="1.1">
<defs>
<clipPath id="clip1">
  <path d="M 66 9 L 79 9 L 79 21.121094 L 66 21.121094 Z M 66 9 "/>
</clipPath>
<clipPath id="clip2">
  <path d="M 79 9 L 91 9 L 91 21.121094 L 79 21.121094 Z M 79 9 "/>
</clipPath>
<clipPath id="clip3">
  <path d="M 92 5 L 96.960938 5 L 96.960938 21 L 92 21 Z M 92 5 "/>
</clipPath>
<clipPath id="clip4">
  <path d="M 6 1 L 11 1 L 11 21.121094 L 6 21.121094 Z M 6 1 "/>
</clipPath>
<clipPath id="clip5">
  <path d="M 22 9 L 28 9 L 28 21.121094 L 22 21.121094 Z M 22 9 "/>
</clipPath>
<clipPath id="clip6">
  <path d="M 10 16 L 24 16 L 24 21.121094 L 10 21.121094 Z M 10 16 "/>
</clipPath>
</defs>
<g id="surface1">
<path style=" stroke:none;fill-rule:evenodd;fill:rgb(94.901961%,0%,0%);fill-opacity:1;" d="M 32.347656 6.710938 L 41.066406 6.710938 C 41.757812 6.710938 42.316406 7.273438 42.316406 7.960938 L 42.316406 9.832031 L 32.34375 9.832031 C 31.65625 9.832031 31.097656 9.273438 31.097656 8.585938 L 31.097656 7.960938 C 31.097656 7.273438 31.65625 6.710938 32.34375 6.710938 Z M 32.347656 6.710938 "/>
<path style=" stroke:none;fill-rule:nonzero;fill:rgb(94.901961%,0%,0%);fill-opacity:1;" d="M 33.957031 20.929688 L 33.957031 6.714844 L 41.425781 6.714844 C 43.351562 6.714844 44.78125 7.0625 45.707031 7.757812 C 46.636719 8.449219 47.101562 9.339844 47.101562 10.429688 C 47.101562 11.152344 46.902344 11.792969 46.511719 12.347656 C 46.121094 12.90625 45.554688 13.34375 44.820312 13.664062 C 44.085938 13.984375 43.191406 14.144531 42.140625 14.144531 L 42.539062 13.101562 C 43.609375 13.101562 44.53125 13.253906 45.3125 13.558594 C 46.09375 13.867188 46.699219 14.316406 47.132812 14.898438 C 47.5625 15.484375 47.777344 16.1875 47.777344 17.011719 C 47.777344 18.238281 47.273438 19.199219 46.261719 19.886719 C 45.246094 20.574219 43.773438 20.921875 41.824219 20.921875 L 33.949219 20.921875 Z M 38.371094 17.761719 L 41.457031 17.761719 C 42.050781 17.761719 42.496094 17.65625 42.800781 17.449219 C 43.101562 17.238281 43.253906 16.929688 43.253906 16.511719 C 43.253906 16.097656 43.101562 15.789062 42.800781 15.574219 C 42.5 15.367188 42.050781 15.261719 41.457031 15.261719 L 38.0625 15.261719 L 38.0625 12.253906 L 40.820312 12.253906 C 41.414062 12.253906 41.855469 12.152344 42.144531 11.949219 C 42.433594 11.742188 42.570312 11.453125 42.570312 11.066406 C 42.570312 10.671875 42.429688 10.375 42.144531 10.179688 C 41.859375 9.984375 41.414062 9.882812 40.820312 9.882812 L 38.367188 9.882812 L 38.367188 17.761719 Z M 38.371094 17.761719 "/>
<path style=" stroke:none;fill-rule:nonzero;fill:rgb(94.901961%,0%,0%);fill-opacity:1;" d="M 49.472656 20.929688 L 49.472656 9.859375 L 53.773438 9.859375 L 53.773438 20.929688 Z M 51.617188 8.839844 C 50.828125 8.839844 50.195312 8.628906 49.722656 8.203125 C 49.253906 7.78125 49.011719 7.253906 49.011719 6.625 C 49.011719 5.996094 49.246094 5.46875 49.722656 5.042969 C 50.195312 4.621094 50.828125 4.40625 51.617188 4.40625 C 52.402344 4.40625 53.035156 4.609375 53.507812 5.007812 C 53.980469 5.40625 54.21875 5.921875 54.21875 6.550781 C 54.21875 7.21875 53.984375 7.769531 53.511719 8.199219 C 53.039062 8.632812 52.40625 8.847656 51.621094 8.847656 Z M 51.617188 8.839844 "/>
<path style=" stroke:none;fill-rule:nonzero;fill:rgb(94.901961%,0%,0%);fill-opacity:1;" d="M 55.515625 20.929688 L 55.515625 18.4375 L 61.539062 11.644531 L 62.253906 13.019531 L 55.671875 13.019531 L 55.671875 9.859375 L 65.730469 9.859375 L 65.730469 12.351562 L 59.707031 19.144531 L 58.992188 17.769531 L 65.949219 17.769531 L 65.949219 20.929688 Z M 55.515625 20.929688 "/>
<g clip-path="url(#clip1)" clip-rule="nonzero">
<path style=" stroke:none;fill-rule:nonzero;fill:rgb(94.901961%,0%,0%);fill-opacity:1;" d="M 73.207031 21.121094 C 71.957031 21.121094 70.839844 20.875 69.863281 20.390625 C 68.886719 19.90625 68.125 19.226562 67.570312 18.359375 C 67.019531 17.492188 66.738281 16.5 66.738281 15.382812 C 66.738281 14.265625 67.015625 13.277344 67.570312 12.414062 C 68.125 11.554688 68.890625 10.878906 69.863281 10.394531 C 70.839844 9.910156 71.953125 9.667969 73.207031 9.667969 C 74.519531 9.667969 75.648438 9.949219 76.589844 10.507812 C 77.527344 11.066406 78.183594 11.847656 78.554688 12.847656 L 75.226562 14.507812 C 74.984375 13.992188 74.6875 13.621094 74.335938 13.386719 C 73.984375 13.15625 73.601562 13.039062 73.1875 13.039062 C 72.808594 13.039062 72.460938 13.128906 72.140625 13.308594 C 71.820312 13.488281 71.5625 13.746094 71.378906 14.09375 C 71.191406 14.4375 71.101562 14.867188 71.101562 15.382812 C 71.101562 15.898438 71.191406 16.335938 71.378906 16.6875 C 71.566406 17.039062 71.820312 17.304688 72.140625 17.480469 C 72.460938 17.660156 72.8125 17.746094 73.1875 17.746094 C 73.605469 17.746094 73.984375 17.632812 74.335938 17.398438 C 74.6875 17.167969 74.984375 16.796875 75.226562 16.28125 L 78.554688 17.941406 C 78.183594 18.941406 77.527344 19.71875 76.589844 20.28125 C 75.648438 20.839844 74.519531 21.121094 73.207031 21.121094 Z M 73.207031 21.121094 "/>
</g>
<g clip-path="url(#clip2)" clip-rule="nonzero">
<path style=" stroke:none;fill-rule:nonzero;fill:rgb(94.901961%,0%,0%);fill-opacity:1;" d="M 86.492188 20.929688 L 86.492188 18.929688 L 86.195312 18.410156 L 86.195312 14.660156 C 86.195312 14.09375 86.019531 13.652344 85.671875 13.351562 C 85.324219 13.046875 84.765625 12.894531 83.996094 12.894531 C 83.480469 12.894531 82.960938 12.976562 82.433594 13.136719 C 81.90625 13.296875 81.460938 13.515625 81.085938 13.796875 L 79.6875 10.941406 C 80.328125 10.527344 81.097656 10.214844 81.988281 9.996094 C 82.878906 9.777344 83.765625 9.667969 84.628906 9.667969 C 86.488281 9.667969 87.933594 10.089844 88.957031 10.925781 C 89.980469 11.765625 90.492188 13.089844 90.492188 14.902344 L 90.492188 20.929688 L 86.488281 20.929688 Z M 83.308594 21.121094 C 82.410156 21.121094 81.660156 20.96875 81.046875 20.660156 C 80.441406 20.351562 79.976562 19.945312 79.664062 19.425781 C 79.351562 18.90625 79.191406 18.332031 79.191406 17.695312 C 79.191406 16.992188 79.367188 16.390625 79.722656 15.894531 C 80.078125 15.394531 80.628906 15.015625 81.367188 14.757812 C 82.109375 14.496094 83.046875 14.363281 84.191406 14.363281 L 86.628906 14.363281 L 86.628906 16.5 L 84.84375 16.5 C 84.304688 16.5 83.914062 16.589844 83.679688 16.761719 C 83.445312 16.933594 83.328125 17.183594 83.328125 17.507812 C 83.328125 17.792969 83.441406 18.027344 83.660156 18.210938 C 83.878906 18.394531 84.183594 18.488281 84.5625 18.488281 C 84.921875 18.488281 85.246094 18.394531 85.542969 18.210938 C 85.839844 18.027344 86.054688 17.734375 86.191406 17.34375 L 86.761719 18.726562 C 86.570312 19.527344 86.191406 20.125 85.617188 20.523438 C 85.039062 20.921875 84.269531 21.121094 83.308594 21.121094 Z M 83.308594 21.121094 "/>
</g>
<g clip-path="url(#clip3)" clip-rule="nonzero">
<path style=" stroke:none;fill-rule:nonzero;fill:rgb(94.901961%,0%,0%);fill-opacity:1;" d="M 92.660156 5.863281 L 96.960938 5.863281 L 96.960938 20.929688 L 92.660156 20.929688 Z M 92.660156 5.863281 "/>
</g>
<g clip-path="url(#clip4)" clip-rule="nonzero">
<path style=" stroke:none;fill-rule:evenodd;fill:rgb(94.901961%,0%,0%);fill-opacity:1;" d="M 6.5 3.074219 L 6.5 19.328125 C 6.5 20.289062 7.28125 21.0625 8.234375 21.0625 L 10.84375 21.0625 L 10.84375 3.070312 C 10.84375 2.113281 10.0625 1.335938 9.109375 1.335938 L 8.238281 1.335938 C 7.28125 1.335938 6.503906 2.117188 6.503906 3.070312 Z M 6.5 3.074219 "/>
</g>
<path style=" stroke:none;fill-rule:evenodd;fill:rgb(94.901961%,0%,0%);fill-opacity:1;" d="M 16.304688 7.496094 L 16.304688 13.394531 L 11.960938 13.394531 L 11.960938 7.496094 C 11.960938 6.535156 12.738281 5.761719 13.695312 5.761719 L 14.5625 5.761719 C 15.523438 5.761719 16.300781 6.539062 16.300781 7.496094 Z M 16.304688 7.496094 "/>
<path style=" stroke:none;fill-rule:evenodd;fill:rgb(94.901961%,0%,0%);fill-opacity:1;" d="M 21.765625 9.363281 L 21.765625 13.394531 L 17.421875 13.394531 L 17.421875 9.363281 C 17.421875 8.402344 18.199219 7.628906 19.15625 7.628906 L 20.023438 7.628906 C 20.984375 7.628906 21.761719 8.40625 21.761719 9.363281 Z M 21.765625 9.363281 "/>
<g clip-path="url(#clip5)" clip-rule="nonzero">
<path style=" stroke:none;fill-rule:evenodd;fill:rgb(94.901961%,0%,0%);fill-opacity:1;" d="M 27.222656 11.683594 L 27.222656 19.320312 C 27.222656 20.28125 26.445312 21.054688 25.488281 21.054688 L 22.878906 21.054688 L 22.878906 11.683594 C 22.878906 10.722656 23.660156 9.949219 24.617188 9.949219 L 25.484375 9.949219 C 26.445312 9.949219 27.21875 10.726562 27.21875 11.683594 Z M 27.222656 11.683594 "/>
</g>
<g clip-path="url(#clip6)" clip-rule="nonzero">
<path style=" stroke:none;fill-rule:evenodd;fill:rgb(94.901961%,0%,0%);fill-opacity:1;" d="M 10.152344 16.71875 L 23.203125 16.71875 L 23.203125 21.066406 L 10.152344 21.066406 Z M 10.152344 16.71875 "/>
</g>
<path style=" stroke:none;fill-rule:evenodd;fill:rgb(94.901961%,0%,0%);fill-opacity:1;" d="M 3.515625 10.800781 L 5.378906 12.542969 L 5.378906 18.492188 L 0.546875 13.972656 C -0.152344 13.316406 -0.1875 12.214844 0.464844 11.515625 L 1.054688 10.878906 C 1.710938 10.179688 2.8125 10.144531 3.511719 10.796875 Z M 3.515625 10.800781 "/>
</g>
</svg>
