<?xml version="1.0" encoding="UTF-8"?>
<svg xmlns="http://www.w3.org/2000/svg" xmlns:xlink="http://www.w3.org/1999/xlink" width="182px" height="46px" viewBox="0 0 184 46" version="1.1">
<g id="surface1">
<path style=" stroke:none;fill-rule:nonzero;fill:rgb(11.372549%,15.686275%,21.176471%);fill-opacity:1;" d="M 8.878906 18.566406 C 8.878906 13.027344 13.375 8.53125 18.914062 8.53125 L 163.746094 8.53125 C 169.292969 8.53125 173.785156 13.027344 173.785156 18.566406 L 173.785156 26.597656 C 173.785156 32.136719 169.292969 36.632812 163.746094 36.632812 L 18.914062 36.632812 C 13.375 36.632812 8.878906 32.136719 8.878906 26.597656 Z M 8.878906 18.566406 "/>
<path style=" stroke:none;fill-rule:nonzero;fill:rgb(11.372549%,15.686275%,21.176471%);fill-opacity:1;" d="M 18.914062 8.027344 L 18.914062 9.03125 L 163.746094 9.03125 L 163.746094 8.027344 Z M 174.285156 18.566406 L 173.28125 18.566406 L 173.28125 26.597656 L 174.285156 26.597656 Z M 163.746094 37.132812 L 163.746094 36.132812 L 18.914062 36.132812 L 18.914062 37.132812 Z M 8.375 26.597656 L 9.378906 26.597656 L 9.378906 18.566406 L 8.375 18.566406 Z M 18.914062 37.132812 L 18.914062 36.132812 C 13.648438 36.132812 9.378906 31.859375 9.378906 26.597656 L 8.375 26.597656 C 8.375 32.417969 13.09375 37.132812 18.914062 37.132812 Z M 174.285156 26.597656 L 173.28125 26.597656 C 173.28125 31.859375 169.011719 36.132812 163.746094 36.132812 L 163.746094 37.132812 C 169.570312 37.132812 174.285156 32.417969 174.285156 26.597656 Z M 163.746094 8.027344 L 163.746094 9.03125 C 169.011719 9.03125 173.28125 13.300781 173.28125 18.566406 L 174.285156 18.566406 C 174.285156 12.746094 169.570312 8.027344 163.746094 8.027344 Z M 18.914062 9.03125 L 18.914062 8.027344 C 13.09375 8.027344 8.375 12.746094 8.375 18.566406 L 9.378906 18.566406 C 9.378906 13.300781 13.648438 9.03125 18.914062 9.03125 Z M 18.914062 9.03125 "/>
<path style=" stroke:none;fill-rule:nonzero;fill:rgb(100%,100%,100%);fill-opacity:1;" d="M 101.898438 27.621094 L 101.898438 17.785156 L 103.386719 17.785156 L 103.386719 21.609375 L 103.472656 21.609375 C 103.644531 21.304688 103.90625 21.039062 104.246094 20.804688 C 104.589844 20.570312 105.027344 20.453125 105.550781 20.453125 C 106.035156 20.453125 106.472656 20.566406 106.855469 20.792969 C 107.246094 21.019531 107.554688 21.332031 107.78125 21.734375 C 108.015625 22.132812 108.132812 22.601562 108.132812 23.136719 L 108.132812 27.621094 L 106.644531 27.621094 L 106.644531 23.488281 C 106.644531 22.964844 106.507812 22.550781 106.238281 22.25 C 105.96875 21.941406 105.585938 21.789062 105.101562 21.789062 C 104.574219 21.789062 104.160156 21.941406 103.851562 22.25 C 103.542969 22.550781 103.386719 22.960938 103.386719 23.488281 L 103.386719 27.621094 Z M 101.898438 27.621094 "/>
<path style=" stroke:none;fill-rule:nonzero;fill:rgb(100%,100%,100%);fill-opacity:1;" d="M 99.375 27.800781 C 98.644531 27.792969 98.0625 27.582031 97.632812 27.183594 C 97.210938 26.769531 97 26.207031 97 25.496094 L 97 21.972656 L 95.523438 21.972656 L 95.523438 20.636719 L 97 20.636719 L 97 18.933594 L 98.488281 18.738281 L 98.488281 20.636719 L 100.640625 20.636719 L 100.640625 21.972656 L 98.488281 21.972656 L 98.488281 25.382812 C 98.488281 25.761719 98.59375 26.039062 98.800781 26.226562 C 99.015625 26.40625 99.296875 26.496094 99.644531 26.496094 C 99.8125 26.496094 99.980469 26.492188 100.136719 26.484375 C 100.304688 26.464844 100.476562 26.433594 100.644531 26.382812 L 100.644531 27.664062 C 100.402344 27.71875 100.1875 27.753906 100.011719 27.777344 C 99.832031 27.792969 99.625 27.804688 99.382812 27.804688 Z M 99.375 27.800781 "/>
<path style=" stroke:none;fill-rule:nonzero;fill:rgb(100%,100%,100%);fill-opacity:1;" d="M 93.464844 19.34375 C 93.199219 19.34375 92.984375 19.257812 92.804688 19.078125 C 92.625 18.898438 92.535156 18.679688 92.535156 18.417969 C 92.535156 18.175781 92.625 17.960938 92.804688 17.785156 C 92.984375 17.605469 93.199219 17.519531 93.464844 17.519531 C 93.734375 17.519531 93.957031 17.605469 94.125 17.785156 C 94.304688 17.964844 94.390625 18.175781 94.390625 18.417969 C 94.390625 18.679688 94.304688 18.898438 94.125 19.078125 C 93.957031 19.257812 93.734375 19.34375 93.464844 19.34375 Z M 92.71875 27.621094 L 92.71875 20.636719 L 94.207031 20.636719 L 94.207031 27.621094 Z M 92.71875 27.621094 "/>
<path style=" stroke:none;fill-rule:nonzero;fill:rgb(100%,100%,100%);fill-opacity:1;" d="M 82.597656 27.621094 L 80.308594 20.636719 L 82.035156 20.636719 L 83.128906 24.710938 C 83.199219 24.960938 83.253906 25.226562 83.3125 25.496094 C 83.382812 25.761719 83.425781 26.007812 83.457031 26.242188 L 83.558594 26.242188 C 83.59375 25.742188 83.691406 25.230469 83.855469 24.695312 L 85.074219 20.632812 L 86.800781 20.632812 L 88.023438 24.695312 C 88.097656 24.945312 88.164062 25.210938 88.21875 25.496094 C 88.285156 25.769531 88.328125 26.015625 88.34375 26.242188 L 88.445312 26.242188 C 88.460938 26.015625 88.5 25.769531 88.558594 25.496094 C 88.625 25.214844 88.6875 24.953125 88.753906 24.710938 L 89.878906 20.636719 L 91.492188 20.636719 L 89.21875 27.621094 L 87.5625 27.621094 L 86.300781 23.53125 C 86.207031 23.242188 86.136719 22.976562 86.089844 22.726562 C 86.046875 22.476562 86.007812 22.234375 85.976562 22.011719 L 85.878906 22.011719 C 85.847656 22.246094 85.8125 22.484375 85.765625 22.726562 C 85.726562 22.972656 85.660156 23.238281 85.570312 23.53125 L 84.347656 27.621094 Z M 82.597656 27.621094 "/>
<path style=" stroke:none;fill-rule:nonzero;fill:rgb(100%,100%,100%);fill-opacity:1;" d="M 73.347656 27.800781 C 72.628906 27.800781 71.996094 27.640625 71.449219 27.324219 C 70.90625 27.007812 70.480469 26.574219 70.171875 26.03125 C 69.871094 25.480469 69.71875 24.851562 69.71875 24.148438 C 69.71875 23.410156 69.875 22.761719 70.183594 22.210938 C 70.492188 21.65625 70.914062 21.226562 71.445312 20.917969 C 71.988281 20.609375 72.609375 20.453125 73.304688 20.453125 C 73.988281 20.453125 74.582031 20.609375 75.089844 20.917969 C 75.59375 21.21875 75.984375 21.636719 76.253906 22.179688 C 76.535156 22.714844 76.679688 23.339844 76.679688 24.050781 C 76.679688 24.140625 76.671875 24.242188 76.664062 24.347656 C 76.664062 24.449219 76.65625 24.535156 76.636719 24.597656 L 71.253906 24.597656 C 71.335938 25.132812 71.566406 25.574219 71.945312 25.929688 C 72.320312 26.277344 72.796875 26.449219 73.378906 26.449219 C 74.238281 26.449219 74.886719 26.152344 75.320312 25.5625 L 76.332031 26.515625 C 76.011719 26.910156 75.59375 27.222656 75.082031 27.457031 C 74.574219 27.683594 73.996094 27.796875 73.351562 27.796875 Z M 73.277344 21.714844 C 72.753906 21.714844 72.308594 21.863281 71.945312 22.152344 C 71.589844 22.441406 71.363281 22.863281 71.269531 23.414062 L 75.164062 23.414062 C 75.089844 22.890625 74.890625 22.476562 74.574219 22.175781 C 74.265625 21.867188 73.835938 21.710938 73.28125 21.710938 Z M 73.277344 21.714844 "/>
<path style=" stroke:none;fill-rule:nonzero;fill:rgb(100%,100%,100%);fill-opacity:1;" d="M 64.605469 27.800781 C 64.136719 27.800781 63.710938 27.6875 63.324219 27.460938 C 62.949219 27.226562 62.648438 26.910156 62.414062 26.507812 C 62.1875 26.105469 62.074219 25.640625 62.074219 25.101562 L 62.074219 20.636719 L 63.5625 20.636719 L 63.5625 24.753906 C 63.5625 25.273438 63.699219 25.691406 63.96875 26.003906 C 64.25 26.3125 64.609375 26.464844 65.050781 26.464844 C 65.539062 26.464844 65.933594 26.3125 66.230469 26.003906 C 66.542969 25.691406 66.695312 25.273438 66.695312 24.753906 L 66.695312 20.636719 L 68.183594 20.636719 L 68.183594 27.621094 L 66.75 27.621094 L 66.75 26.636719 L 66.667969 26.636719 C 66.488281 26.9375 66.226562 27.210938 65.878906 27.453125 C 65.542969 27.6875 65.113281 27.804688 64.601562 27.804688 Z M 64.605469 27.800781 "/>
<path style=" stroke:none;fill-rule:nonzero;fill:rgb(100%,100%,100%);fill-opacity:1;" d="M 53.984375 27.621094 L 53.984375 20.636719 L 55.417969 20.636719 L 55.417969 21.621094 L 55.5 21.621094 C 55.679688 21.320312 55.9375 21.050781 56.273438 20.816406 C 56.621094 20.574219 57.070312 20.453125 57.625 20.453125 C 58.109375 20.453125 58.554688 20.566406 58.945312 20.792969 C 59.339844 21.019531 59.648438 21.335938 59.875 21.746094 C 60.109375 22.148438 60.226562 22.617188 60.226562 23.152344 L 60.226562 27.617188 L 58.738281 27.617188 L 58.738281 23.5 C 58.738281 22.980469 58.59375 22.5625 58.316406 22.25 C 58.035156 21.941406 57.65625 21.789062 57.179688 21.789062 C 56.664062 21.789062 56.25 21.941406 55.941406 22.25 C 55.628906 22.5625 55.476562 22.980469 55.476562 23.5 L 55.476562 27.617188 L 53.988281 27.617188 Z M 53.984375 27.621094 "/>
<path style=" stroke:none;fill-rule:nonzero;fill:rgb(100%,100%,100%);fill-opacity:1;" d="M 51.242188 19.34375 C 50.980469 19.34375 50.761719 19.257812 50.582031 19.078125 C 50.402344 18.898438 50.316406 18.679688 50.316406 18.417969 C 50.316406 18.175781 50.402344 17.960938 50.582031 17.785156 C 50.761719 17.605469 50.980469 17.519531 51.242188 17.519531 C 51.515625 17.519531 51.738281 17.605469 51.90625 17.785156 C 52.085938 17.964844 52.171875 18.175781 52.171875 18.417969 C 52.171875 18.679688 52.085938 18.898438 51.90625 19.078125 C 51.738281 19.257812 51.515625 19.34375 51.242188 19.34375 Z M 50.5 27.621094 L 50.5 20.636719 L 51.988281 20.636719 L 51.988281 27.621094 Z M 50.5 27.621094 "/>
<path style=" stroke:none;fill-rule:nonzero;fill:rgb(100%,100%,100%);fill-opacity:1;" d="M 47.976562 27.800781 C 47.246094 27.792969 46.664062 27.582031 46.234375 27.183594 C 45.8125 26.769531 45.601562 26.207031 45.601562 25.496094 L 45.601562 21.972656 L 44.125 21.972656 L 44.125 20.636719 L 45.601562 20.636719 L 45.601562 18.933594 L 47.089844 18.738281 L 47.089844 20.636719 L 49.242188 20.636719 L 49.242188 21.972656 L 47.089844 21.972656 L 47.089844 25.382812 C 47.089844 25.761719 47.195312 26.039062 47.402344 26.226562 C 47.617188 26.40625 47.898438 26.496094 48.246094 26.496094 C 48.414062 26.496094 48.582031 26.492188 48.738281 26.484375 C 48.90625 26.464844 49.078125 26.433594 49.246094 26.382812 L 49.246094 27.664062 C 49.003906 27.71875 48.789062 27.753906 48.613281 27.777344 C 48.433594 27.792969 48.226562 27.804688 47.980469 27.804688 Z M 47.976562 27.800781 "/>
<path style=" stroke:none;fill-rule:nonzero;fill:rgb(100%,100%,100%);fill-opacity:1;" d="M 36.832031 27.621094 L 36.832031 20.636719 L 38.269531 20.636719 L 38.269531 21.621094 L 38.351562 21.621094 C 38.53125 21.320312 38.785156 21.050781 39.125 20.816406 C 39.472656 20.574219 39.917969 20.453125 40.476562 20.453125 C 40.960938 20.453125 41.402344 20.566406 41.796875 20.792969 C 42.191406 21.019531 42.5 21.335938 42.726562 21.746094 C 42.960938 22.148438 43.078125 22.617188 43.078125 23.152344 L 43.078125 27.617188 L 41.589844 27.617188 L 41.589844 23.5 C 41.589844 22.980469 41.445312 22.5625 41.164062 22.25 C 40.886719 21.941406 40.503906 21.789062 40.027344 21.789062 C 39.515625 21.789062 39.101562 21.941406 38.789062 22.25 C 38.480469 22.5625 38.328125 22.980469 38.328125 23.5 L 38.328125 27.617188 L 36.835938 27.617188 Z M 36.832031 27.621094 "/>
<path style=" stroke:none;fill-rule:nonzero;fill:rgb(100%,100%,100%);fill-opacity:1;" d="M 31.691406 27.800781 C 30.996094 27.800781 30.375 27.640625 29.832031 27.324219 C 29.289062 27.007812 28.859375 26.570312 28.539062 26.019531 C 28.230469 25.46875 28.078125 24.839844 28.078125 24.136719 C 28.078125 23.425781 28.230469 22.796875 28.539062 22.238281 C 28.859375 21.6875 29.289062 21.253906 29.832031 20.933594 C 30.375 20.617188 30.996094 20.457031 31.691406 20.457031 C 32.382812 20.457031 33.003906 20.617188 33.546875 20.933594 C 34.097656 21.253906 34.527344 21.6875 34.839844 22.238281 C 35.148438 22.789062 35.304688 23.417969 35.304688 24.121094 C 35.304688 24.832031 35.148438 25.464844 34.839844 26.019531 C 34.527344 26.570312 34.097656 27.007812 33.546875 27.324219 C 33.003906 27.640625 32.382812 27.800781 31.691406 27.800781 Z M 31.691406 26.4375 C 32.324219 26.4375 32.835938 26.21875 33.21875 25.789062 C 33.613281 25.359375 33.808594 24.804688 33.808594 24.132812 C 33.808594 23.449219 33.613281 22.890625 33.21875 22.460938 C 32.835938 22.03125 32.324219 21.8125 31.691406 21.8125 C 31.054688 21.8125 30.535156 22.03125 30.140625 22.460938 C 29.757812 22.890625 29.566406 23.449219 29.566406 24.132812 C 29.566406 24.804688 29.757812 25.359375 30.140625 25.789062 C 30.535156 26.21875 31.050781 26.4375 31.691406 26.4375 Z M 31.691406 26.4375 "/>
<path style=" stroke:none;fill-rule:nonzero;fill:rgb(100%,100%,100%);fill-opacity:1;" d="M 24 27.800781 C 23.28125 27.800781 22.605469 27.671875 21.992188 27.40625 C 21.375 27.144531 20.832031 26.785156 20.378906 26.324219 C 19.917969 25.855469 19.558594 25.316406 19.292969 24.710938 C 19.042969 24.089844 18.914062 23.425781 18.914062 22.714844 C 18.914062 22.003906 19.039062 21.339844 19.292969 20.722656 C 19.546875 20.101562 19.898438 19.558594 20.347656 19.089844 C 20.808594 18.621094 21.347656 18.257812 21.964844 17.996094 C 22.582031 17.730469 23.257812 17.601562 24 17.601562 C 24.730469 17.601562 25.398438 17.726562 26.007812 17.980469 C 26.625 18.234375 27.160156 18.628906 27.609375 19.160156 L 26.5 20.171875 C 26.175781 19.789062 25.800781 19.511719 25.390625 19.34375 C 24.976562 19.164062 24.519531 19.078125 24 19.078125 C 23.304688 19.078125 22.699219 19.238281 22.171875 19.554688 C 21.648438 19.871094 21.238281 20.308594 20.949219 20.859375 C 20.664062 21.402344 20.515625 22.019531 20.515625 22.714844 C 20.515625 23.410156 20.667969 24.027344 20.96875 24.574219 C 21.277344 25.117188 21.695312 25.546875 22.21875 25.863281 C 22.753906 26.175781 23.359375 26.328125 24.046875 26.328125 C 24.566406 26.328125 25.03125 26.242188 25.4375 26.0625 C 25.851562 25.871094 26.214844 25.597656 26.535156 25.234375 L 27.671875 26.203125 C 27.269531 26.679688 26.761719 27.070312 26.152344 27.371094 C 25.542969 27.660156 24.828125 27.804688 24.003906 27.804688 Z M 24 27.800781 "/>
<path style=" stroke:none;fill-rule:evenodd;fill:rgb(100%,100%,100%);fill-opacity:1;" d="M 113.898438 19.011719 L 119.222656 19.011719 C 119.644531 19.011719 119.984375 19.351562 119.984375 19.773438 L 119.984375 20.914062 L 113.898438 20.914062 C 113.476562 20.914062 113.140625 20.570312 113.140625 20.152344 L 113.140625 19.773438 C 113.140625 19.347656 113.480469 19.011719 113.898438 19.011719 Z M 113.898438 19.011719 "/>
<path style=" stroke:none;fill-rule:nonzero;fill:rgb(100%,100%,100%);fill-opacity:1;" d="M 114.878906 27.683594 L 114.878906 19.015625 L 119.4375 19.015625 C 120.613281 19.015625 121.484375 19.226562 122.050781 19.648438 C 122.621094 20.074219 122.898438 20.617188 122.898438 21.28125 C 122.898438 21.71875 122.777344 22.113281 122.539062 22.453125 C 122.300781 22.789062 121.953125 23.0625 121.507812 23.253906 C 121.058594 23.453125 120.515625 23.546875 119.871094 23.546875 L 120.117188 22.914062 C 120.769531 22.914062 121.335938 23.003906 121.8125 23.191406 C 122.289062 23.378906 122.65625 23.652344 122.921875 24.007812 C 123.183594 24.363281 123.3125 24.792969 123.3125 25.296875 C 123.3125 26.042969 123.003906 26.628906 122.390625 27.050781 C 121.773438 27.46875 120.871094 27.683594 119.683594 27.683594 Z M 117.574219 25.75 L 119.457031 25.75 C 119.820312 25.75 120.09375 25.6875 120.277344 25.558594 C 120.460938 25.433594 120.554688 25.242188 120.554688 24.992188 C 120.554688 24.738281 120.460938 24.546875 120.277344 24.421875 C 120.09375 24.292969 119.820312 24.230469 119.457031 24.230469 L 117.386719 24.230469 L 117.386719 22.394531 L 119.070312 22.394531 C 119.433594 22.394531 119.699219 22.332031 119.875 22.210938 C 120.050781 22.085938 120.140625 21.910156 120.140625 21.675781 C 120.140625 21.433594 120.050781 21.253906 119.875 21.128906 C 119.699219 21.007812 119.433594 20.949219 119.070312 20.949219 L 117.574219 20.949219 L 117.574219 25.753906 Z M 117.574219 25.75 "/>
<path style=" stroke:none;fill-rule:nonzero;fill:rgb(100%,100%,100%);fill-opacity:1;" d="M 124.347656 27.683594 L 124.347656 20.929688 L 126.96875 20.929688 L 126.96875 27.683594 Z M 125.65625 20.308594 C 125.175781 20.308594 124.789062 20.175781 124.5 19.917969 C 124.210938 19.660156 124.066406 19.335938 124.066406 18.953125 C 124.066406 18.566406 124.210938 18.246094 124.5 17.984375 C 124.789062 17.726562 125.175781 17.597656 125.65625 17.597656 C 126.136719 17.597656 126.519531 17.71875 126.808594 17.960938 C 127.097656 18.203125 127.246094 18.515625 127.246094 18.902344 C 127.246094 19.308594 127.101562 19.640625 126.8125 19.90625 C 126.523438 20.167969 126.140625 20.296875 125.660156 20.296875 Z M 125.65625 20.308594 "/>
<path style=" stroke:none;fill-rule:nonzero;fill:rgb(100%,100%,100%);fill-opacity:1;" d="M 128.035156 27.683594 L 128.035156 26.164062 L 131.710938 22.019531 L 132.144531 22.863281 L 128.132812 22.863281 L 128.132812 20.933594 L 134.269531 20.933594 L 134.269531 22.453125 L 130.59375 26.597656 L 130.15625 25.753906 L 134.398438 25.753906 L 134.398438 27.683594 Z M 128.035156 27.683594 "/>
<path style=" stroke:none;fill-rule:nonzero;fill:rgb(100%,100%,100%);fill-opacity:1;" d="M 138.828125 27.800781 C 138.0625 27.800781 137.386719 27.65625 136.789062 27.359375 C 136.195312 27.058594 135.726562 26.648438 135.386719 26.121094 C 135.046875 25.589844 134.878906 24.988281 134.878906 24.304688 C 134.878906 23.625 135.046875 23.015625 135.386719 22.492188 C 135.726562 21.96875 136.1875 21.558594 136.789062 21.261719 C 137.382812 20.964844 138.0625 20.816406 138.828125 20.816406 C 139.632812 20.816406 140.316406 20.988281 140.890625 21.332031 C 141.460938 21.675781 141.863281 22.152344 142.089844 22.757812 L 140.0625 23.769531 C 139.910156 23.457031 139.730469 23.226562 139.519531 23.085938 C 139.304688 22.945312 139.070312 22.875 138.816406 22.875 C 138.585938 22.875 138.371094 22.929688 138.175781 23.039062 C 137.980469 23.144531 137.824219 23.304688 137.710938 23.519531 C 137.597656 23.726562 137.539062 23.992188 137.539062 24.308594 C 137.539062 24.625 137.597656 24.890625 137.710938 25.101562 C 137.824219 25.316406 137.980469 25.480469 138.175781 25.589844 C 138.371094 25.699219 138.585938 25.75 138.816406 25.75 C 139.070312 25.75 139.300781 25.679688 139.519531 25.539062 C 139.730469 25.394531 139.914062 25.171875 140.0625 24.851562 L 142.089844 25.863281 C 141.863281 26.476562 141.460938 26.949219 140.890625 27.289062 C 140.316406 27.632812 139.625 27.804688 138.828125 27.804688 Z M 138.828125 27.800781 "/>
<path style=" stroke:none;fill-rule:nonzero;fill:rgb(100%,100%,100%);fill-opacity:1;" d="M 146.933594 27.683594 L 146.933594 26.460938 L 146.753906 26.144531 L 146.753906 23.855469 C 146.753906 23.511719 146.648438 23.242188 146.433594 23.058594 C 146.222656 22.875 145.882812 22.78125 145.410156 22.78125 C 145.097656 22.78125 144.777344 22.832031 144.457031 22.929688 C 144.132812 23.023438 143.863281 23.164062 143.636719 23.332031 L 142.785156 21.585938 C 143.171875 21.335938 143.640625 21.144531 144.1875 21.007812 C 144.734375 20.875 145.273438 20.808594 145.800781 20.808594 C 146.9375 20.808594 147.816406 21.0625 148.4375 21.578125 C 149.0625 22.089844 149.375 22.898438 149.375 24.003906 L 149.375 27.679688 L 146.933594 27.679688 Z M 144.988281 27.800781 C 144.441406 27.800781 143.980469 27.707031 143.609375 27.519531 C 143.234375 27.332031 142.957031 27.082031 142.761719 26.769531 C 142.570312 26.453125 142.472656 26.101562 142.472656 25.714844 C 142.472656 25.289062 142.582031 24.917969 142.800781 24.613281 C 143.019531 24.308594 143.351562 24.078125 143.804688 23.921875 C 144.257812 23.761719 144.828125 23.679688 145.527344 23.679688 L 147.011719 23.679688 L 147.011719 24.988281 L 145.925781 24.988281 C 145.59375 24.988281 145.355469 25.039062 145.214844 25.144531 C 145.070312 25.25 145 25.40625 145 25.601562 C 145 25.777344 145.066406 25.917969 145.199219 26.03125 C 145.335938 26.144531 145.519531 26.199219 145.753906 26.199219 C 145.96875 26.199219 146.171875 26.144531 146.351562 26.03125 C 146.53125 25.917969 146.664062 25.742188 146.75 25.503906 L 147.09375 26.351562 C 146.984375 26.839844 146.75 27.203125 146.398438 27.445312 C 146.046875 27.6875 145.574219 27.808594 144.988281 27.808594 Z M 144.988281 27.800781 "/>
<path style=" stroke:none;fill-rule:nonzero;fill:rgb(100%,100%,100%);fill-opacity:1;" d="M 150.695312 18.492188 L 153.316406 18.492188 L 153.316406 27.683594 L 150.695312 27.683594 Z M 150.695312 18.492188 "/>
</g>
</svg>
