<?xml version="1.0" encoding="UTF-8"?>
<svg xmlns="http://www.w3.org/2000/svg" xmlns:xlink="http://www.w3.org/1999/xlink" width="189px" height="41px" viewBox="0 0 188 41" version="1.1">
<defs>
<clipPath id="clip1">
  <path d="M 0 0 L 185.382812 0 L 185.382812 39.359375 L 0 39.359375 Z M 0 0 "/>
</clipPath>
</defs>
<g id="surface1">
<path style=" stroke:none;fill-rule:nonzero;fill:rgb(100%,100%,100%);fill-opacity:1;" d="M 165.765625 0.492188 L 19.617188 0.492188 C 9.050781 0.492188 0.492188 9.082031 0.492188 19.679688 C 0.492188 30.277344 9.050781 38.867188 19.617188 38.867188 L 165.765625 38.867188 C 176.332031 38.867188 184.894531 30.277344 184.894531 19.679688 C 184.894531 9.082031 176.332031 0.492188 165.765625 0.492188 Z M 165.765625 0.492188 "/>
<g clip-path="url(#clip1)" clip-rule="nonzero">
<path style="fill:none;stroke-width:0.24;stroke-linecap:butt;stroke-linejoin:miter;stroke:rgb(55.686277%,56.862748%,56.078434%);stroke-opacity:1;stroke-miterlimit:4;" d="M 40.559674 0.120046 L 4.79995 0.120046 C 2.214553 0.120046 0.120429 2.21513 0.120429 4.799924 C 0.120429 7.384718 2.214553 9.479802 4.79995 9.479802 L 40.559674 9.479802 C 43.145071 9.479802 45.240151 7.384718 45.240151 4.799924 C 45.240151 2.21513 43.145071 0.120046 40.559674 0.120046 Z M 40.559674 0.120046 " transform="matrix(4.086957,0,0,4.1,0,0)"/>
</g>
<path style=" stroke:none;fill-rule:nonzero;fill:rgb(0%,0%,0%);fill-opacity:1;" d="M 106.054688 24.851562 L 106.054688 15.207031 L 107.332031 15.207031 L 107.332031 19.035156 L 107.414062 19.035156 C 107.597656 18.726562 107.855469 18.453125 108.183594 18.222656 C 108.511719 17.988281 108.9375 17.867188 109.457031 17.867188 C 109.953125 17.867188 110.382812 17.976562 110.761719 18.199219 C 111.144531 18.414062 111.441406 18.710938 111.652344 19.109375 C 111.871094 19.503906 111.984375 19.964844 111.984375 20.488281 L 111.984375 24.855469 L 110.691406 24.855469 L 110.691406 20.792969 C 110.691406 20.257812 110.550781 19.835938 110.277344 19.523438 C 110.011719 19.203125 109.636719 19.039062 109.148438 19.039062 C 108.589844 19.039062 108.148438 19.199219 107.816406 19.523438 C 107.488281 19.835938 107.324219 20.257812 107.324219 20.792969 L 107.324219 24.855469 L 106.046875 24.855469 Z M 106.054688 24.851562 "/>
<path style=" stroke:none;fill-rule:nonzero;fill:rgb(0%,0%,0%);fill-opacity:1;" d="M 103.605469 25.03125 C 102.910156 25.015625 102.363281 24.8125 101.96875 24.441406 C 101.585938 24.054688 101.394531 23.519531 101.394531 22.828125 L 101.394531 19.203125 L 99.898438 19.203125 L 99.898438 18.046875 L 101.394531 18.046875 L 101.394531 16.394531 L 102.683594 16.203125 L 102.683594 18.046875 L 104.828125 18.046875 L 104.828125 19.203125 L 102.683594 19.203125 L 102.683594 22.746094 C 102.683594 23.5 103.074219 23.878906 103.855469 23.878906 C 104.007812 23.878906 104.164062 23.875 104.320312 23.867188 C 104.484375 23.851562 104.65625 23.816406 104.828125 23.769531 L 104.828125 24.898438 C 104.582031 24.953125 104.367188 24.988281 104.191406 25.011719 C 104.015625 25.039062 103.820312 25.046875 103.601562 25.039062 Z M 103.605469 25.03125 "/>
<path style=" stroke:none;fill-rule:nonzero;fill:rgb(0%,0%,0%);fill-opacity:1;" d="M 97.96875 16.570312 C 97.722656 16.570312 97.519531 16.496094 97.363281 16.339844 C 97.214844 16.183594 97.144531 15.988281 97.144531 15.761719 C 97.144531 15.546875 97.214844 15.367188 97.363281 15.210938 C 97.519531 15.046875 97.71875 14.964844 97.96875 14.964844 C 98.199219 14.964844 98.390625 15.046875 98.542969 15.210938 C 98.699219 15.367188 98.777344 15.550781 98.777344 15.761719 C 98.777344 15.988281 98.699219 16.183594 98.542969 16.339844 C 98.390625 16.496094 98.199219 16.570312 97.96875 16.570312 Z M 97.324219 24.851562 L 97.324219 18.042969 L 98.597656 18.042969 L 98.597656 24.851562 Z M 97.324219 24.851562 "/>
<path style=" stroke:none;fill-rule:nonzero;fill:rgb(0%,0%,0%);fill-opacity:1;" d="M 87.691406 24.855469 L 85.480469 18.046875 L 86.949219 18.046875 L 88.101562 22.152344 C 88.175781 22.410156 88.246094 22.675781 88.308594 22.953125 C 88.371094 23.226562 88.414062 23.476562 88.429688 23.695312 L 88.527344 23.695312 C 88.535156 23.480469 88.570312 23.234375 88.625 22.953125 C 88.679688 22.667969 88.75 22.394531 88.828125 22.140625 L 90.0625 18.046875 L 91.578125 18.046875 L 92.8125 22.140625 C 92.890625 22.398438 92.960938 22.667969 93.015625 22.953125 C 93.082031 23.234375 93.121094 23.484375 93.136719 23.695312 L 93.234375 23.695312 C 93.242188 23.480469 93.28125 23.234375 93.347656 22.953125 C 93.410156 22.667969 93.472656 22.402344 93.539062 22.152344 L 94.707031 18.046875 L 96.109375 18.046875 L 93.910156 24.855469 L 92.4375 24.855469 L 91.175781 20.75 C 91.074219 20.4375 91 20.160156 90.957031 19.910156 C 90.910156 19.664062 90.875 19.425781 90.84375 19.207031 L 90.761719 19.207031 C 90.734375 19.429688 90.699219 19.664062 90.652344 19.910156 C 90.609375 20.148438 90.539062 20.429688 90.449219 20.75 L 89.199219 24.855469 L 87.6875 24.855469 Z M 87.691406 24.855469 "/>
<path style=" stroke:none;fill-rule:nonzero;fill:rgb(0%,0%,0%);fill-opacity:1;" d="M 78.660156 25.03125 C 77.957031 25.03125 77.339844 24.878906 76.824219 24.574219 C 76.300781 24.265625 75.894531 23.835938 75.601562 23.296875 C 75.304688 22.753906 75.160156 22.140625 75.160156 21.453125 C 75.160156 20.753906 75.304688 20.140625 75.601562 19.605469 C 75.902344 19.066406 76.316406 18.644531 76.835938 18.339844 C 77.359375 18.027344 77.949219 17.871094 78.621094 17.871094 C 79.300781 17.871094 79.878906 18.023438 80.367188 18.328125 C 80.859375 18.621094 81.242188 19.03125 81.507812 19.566406 C 81.773438 20.097656 81.902344 20.714844 81.902344 21.410156 C 81.902344 21.492188 81.898438 21.578125 81.890625 21.671875 C 81.890625 21.761719 81.882812 21.835938 81.863281 21.894531 L 76.480469 21.894531 C 76.554688 22.472656 76.789062 22.945312 77.195312 23.3125 C 77.597656 23.667969 78.09375 23.851562 78.679688 23.851562 C 79.546875 23.851562 80.203125 23.550781 80.640625 22.957031 L 81.53125 23.769531 C 81.21875 24.171875 80.816406 24.484375 80.320312 24.703125 C 79.828125 24.925781 79.273438 25.035156 78.65625 25.035156 Z M 78.59375 19.011719 C 78.03125 19.011719 77.566406 19.167969 77.191406 19.480469 C 76.8125 19.789062 76.582031 20.242188 76.492188 20.828125 L 80.582031 20.828125 C 80.507812 20.277344 80.304688 19.835938 79.964844 19.503906 C 79.632812 19.171875 79.175781 19.007812 78.59375 19.007812 Z M 78.59375 19.011719 "/>
<path style=" stroke:none;fill-rule:nonzero;fill:rgb(0%,0%,0%);fill-opacity:1;" d="M 70.332031 25.03125 C 69.867188 25.03125 69.445312 24.925781 69.070312 24.714844 C 68.703125 24.492188 68.410156 24.1875 68.191406 23.792969 C 67.96875 23.398438 67.859375 22.933594 67.859375 22.402344 L 67.859375 18.046875 L 69.136719 18.046875 L 69.136719 22.109375 C 69.136719 22.644531 69.273438 23.070312 69.546875 23.390625 C 69.828125 23.703125 70.195312 23.859375 70.628906 23.859375 C 71.152344 23.859375 71.574219 23.703125 71.894531 23.390625 C 72.210938 23.070312 72.375 22.640625 72.375 22.109375 L 72.375 18.046875 L 73.667969 18.046875 L 73.667969 24.855469 L 72.433594 24.855469 L 72.433594 23.863281 L 72.351562 23.863281 C 72.175781 24.171875 71.925781 24.449219 71.59375 24.691406 C 71.265625 24.917969 70.84375 25.035156 70.332031 25.035156 Z M 70.332031 25.03125 "/>
<path style=" stroke:none;fill-rule:nonzero;fill:rgb(0%,0%,0%);fill-opacity:1;" d="M 60.082031 24.851562 L 60.082031 18.042969 L 61.304688 18.042969 L 61.304688 19.035156 L 61.386719 19.035156 C 61.570312 18.734375 61.828125 18.460938 62.15625 18.222656 C 62.484375 17.988281 62.921875 17.867188 63.472656 17.867188 C 63.960938 17.867188 64.394531 17.976562 64.777344 18.199219 C 65.164062 18.421875 65.464844 18.730469 65.6875 19.121094 C 65.90625 19.507812 66.015625 19.96875 66.015625 20.5 L 66.015625 24.855469 L 64.726562 24.855469 L 64.726562 20.792969 C 64.726562 20.257812 64.582031 19.835938 64.300781 19.523438 C 64.027344 19.203125 63.644531 19.039062 63.160156 19.039062 C 62.613281 19.039062 62.171875 19.199219 61.839844 19.523438 C 61.519531 19.835938 61.359375 20.257812 61.359375 20.792969 L 61.359375 24.855469 L 60.082031 24.855469 Z M 60.082031 24.851562 "/>
<path style=" stroke:none;fill-rule:nonzero;fill:rgb(0%,0%,0%);fill-opacity:1;" d="M 57.484375 16.570312 C 57.238281 16.570312 57.035156 16.496094 56.878906 16.339844 C 56.730469 16.183594 56.65625 15.988281 56.65625 15.761719 C 56.65625 15.546875 56.730469 15.367188 56.878906 15.210938 C 57.035156 15.046875 57.234375 14.964844 57.484375 14.964844 C 57.710938 14.964844 57.902344 15.046875 58.058594 15.210938 C 58.214844 15.367188 58.292969 15.550781 58.292969 15.761719 C 58.292969 15.988281 58.214844 16.183594 58.058594 16.339844 C 57.902344 16.496094 57.710938 16.570312 57.484375 16.570312 Z M 56.835938 24.851562 L 56.835938 18.042969 L 58.113281 18.042969 L 58.113281 24.851562 Z M 56.835938 24.851562 "/>
<path style=" stroke:none;fill-rule:nonzero;fill:rgb(0%,0%,0%);fill-opacity:1;" d="M 54.390625 25.03125 C 53.695312 25.015625 53.148438 24.8125 52.753906 24.441406 C 52.371094 24.054688 52.179688 23.519531 52.179688 22.828125 L 52.179688 19.203125 L 50.683594 19.203125 L 50.683594 18.046875 L 52.179688 18.046875 L 52.179688 16.394531 L 53.46875 16.203125 L 53.46875 18.046875 L 55.609375 18.046875 L 55.609375 19.203125 L 53.46875 19.203125 L 53.46875 22.746094 C 53.46875 23.5 53.859375 23.878906 54.636719 23.878906 C 54.792969 23.878906 54.949219 23.875 55.105469 23.867188 C 55.269531 23.851562 55.441406 23.816406 55.609375 23.769531 L 55.609375 24.898438 C 55.367188 24.953125 55.152344 24.988281 54.976562 25.011719 C 54.800781 25.039062 54.605469 25.046875 54.390625 25.039062 Z M 54.390625 25.03125 "/>
<path style=" stroke:none;fill-rule:nonzero;fill:rgb(0%,0%,0%);fill-opacity:1;" d="M 43.699219 24.851562 L 43.699219 18.042969 L 44.917969 18.042969 L 44.917969 19.035156 L 45 19.035156 C 45.183594 18.734375 45.441406 18.460938 45.769531 18.222656 C 46.101562 17.988281 46.539062 17.867188 47.089844 17.867188 C 47.578125 17.867188 48.007812 17.976562 48.394531 18.199219 C 48.777344 18.421875 49.082031 18.730469 49.300781 19.121094 C 49.523438 19.507812 49.632812 19.96875 49.632812 20.5 L 49.632812 24.855469 L 48.339844 24.855469 L 48.339844 20.792969 C 48.339844 20.257812 48.199219 19.835938 47.914062 19.523438 C 47.640625 19.203125 47.261719 19.039062 46.773438 19.039062 C 46.226562 19.039062 45.785156 19.199219 45.457031 19.523438 C 45.136719 19.835938 44.972656 20.257812 44.972656 20.792969 L 44.972656 24.855469 L 43.699219 24.855469 Z M 43.699219 24.851562 "/>
<path style=" stroke:none;fill-rule:nonzero;fill:rgb(0%,0%,0%);fill-opacity:1;" d="M 38.726562 25.03125 C 38.058594 25.03125 37.460938 24.878906 36.929688 24.574219 C 36.40625 24.265625 35.996094 23.839844 35.695312 23.308594 C 35.402344 22.765625 35.253906 22.152344 35.253906 21.464844 C 35.253906 20.765625 35.402344 20.152344 35.695312 19.617188 C 35.996094 19.078125 36.410156 18.652344 36.929688 18.339844 C 37.460938 18.027344 38.0625 17.871094 38.726562 17.871094 C 39.398438 17.871094 39.992188 18.027344 40.515625 18.339844 C 41.046875 18.644531 41.457031 19.066406 41.75 19.605469 C 42.050781 20.140625 42.203125 20.75 42.203125 21.4375 C 42.203125 22.136719 42.050781 22.753906 41.75 23.300781 C 41.453125 23.839844 41.046875 24.269531 40.515625 24.578125 C 39.992188 24.882812 39.398438 25.035156 38.726562 25.035156 Z M 38.726562 23.84375 C 39.386719 23.84375 39.917969 23.621094 40.320312 23.167969 C 40.726562 22.71875 40.925781 22.144531 40.925781 21.445312 C 40.925781 20.988281 40.835938 20.578125 40.652344 20.222656 C 40.46875 19.863281 40.210938 19.578125 39.882812 19.367188 C 39.554688 19.15625 39.167969 19.050781 38.730469 19.050781 C 38.074219 19.050781 37.542969 19.277344 37.136719 19.730469 C 36.746094 20.179688 36.550781 20.753906 36.550781 21.453125 C 36.550781 21.910156 36.636719 22.324219 36.8125 22.6875 C 36.996094 23.046875 37.253906 23.332031 37.578125 23.542969 C 37.910156 23.742188 38.292969 23.84375 38.730469 23.84375 Z M 38.726562 23.84375 "/>
<path style=" stroke:none;fill-rule:nonzero;fill:rgb(0%,0%,0%);fill-opacity:1;" d="M 31.265625 25.03125 C 30.570312 25.03125 29.921875 24.90625 29.316406 24.65625 C 28.71875 24.398438 28.199219 24.046875 27.75 23.59375 C 27.300781 23.136719 26.949219 22.601562 26.691406 21.996094 C 26.445312 21.390625 26.320312 20.738281 26.320312 20.039062 C 26.320312 19.34375 26.441406 18.691406 26.691406 18.085938 C 26.9375 17.476562 27.28125 16.945312 27.722656 16.484375 C 28.171875 16.027344 28.691406 15.671875 29.289062 15.410156 C 29.890625 15.152344 30.550781 15.027344 31.265625 15.027344 C 31.988281 15.027344 32.648438 15.148438 33.242188 15.398438 C 33.839844 15.644531 34.355469 16.027344 34.796875 16.542969 L 33.820312 17.414062 C 33.480469 17.007812 33.097656 16.71875 32.667969 16.542969 C 32.246094 16.367188 31.78125 16.28125 31.265625 16.28125 C 30.570312 16.28125 29.953125 16.445312 29.410156 16.777344 C 28.878906 17.109375 28.460938 17.554688 28.160156 18.125 C 27.855469 18.6875 27.707031 19.324219 27.707031 20.039062 C 27.707031 20.765625 27.859375 21.410156 28.171875 21.96875 C 28.488281 22.53125 28.921875 22.96875 29.460938 23.292969 C 30.011719 23.605469 30.625 23.757812 31.300781 23.757812 C 31.871094 23.757812 32.359375 23.667969 32.773438 23.484375 C 33.1875 23.292969 33.558594 23.007812 33.886719 22.632812 L 34.863281 23.445312 C 34.457031 23.941406 33.953125 24.328125 33.347656 24.617188 C 32.753906 24.890625 32.058594 25.03125 31.261719 25.03125 Z M 31.265625 25.03125 "/>
<path style=" stroke:none;fill-rule:evenodd;fill:rgb(0%,0%,0%);fill-opacity:1;" d="M 117.835938 15.804688 L 123.402344 15.804688 C 123.84375 15.804688 124.199219 16.164062 124.199219 16.605469 L 124.199219 17.804688 L 117.835938 17.804688 C 117.394531 17.804688 117.039062 17.449219 117.039062 17.007812 L 117.039062 16.605469 C 117.039062 16.164062 117.394531 15.804688 117.835938 15.804688 Z M 117.835938 15.804688 "/>
<path style=" stroke:none;fill-rule:nonzero;fill:rgb(0%,0%,0%);fill-opacity:1;" d="M 118.859375 24.90625 L 118.859375 15.808594 L 123.625 15.808594 C 124.855469 15.808594 125.769531 16.03125 126.359375 16.472656 C 126.953125 16.917969 127.25 17.488281 127.25 18.183594 C 127.25 18.648438 127.125 19.058594 126.875 19.414062 C 126.625 19.769531 126.265625 20.054688 125.796875 20.257812 C 125.328125 20.464844 124.757812 20.566406 124.089844 20.566406 L 124.34375 19.898438 C 125.027344 19.898438 125.617188 19.996094 126.117188 20.191406 C 126.613281 20.390625 127.003906 20.675781 127.277344 21.050781 C 127.550781 21.421875 127.6875 21.875 127.6875 22.402344 C 127.6875 23.191406 127.367188 23.804688 126.71875 24.242188 C 126.074219 24.6875 125.128906 24.902344 123.890625 24.902344 L 118.867188 24.902344 Z M 121.679688 22.878906 L 123.652344 22.878906 C 124.03125 22.878906 124.316406 22.8125 124.507812 22.675781 C 124.703125 22.542969 124.800781 22.34375 124.800781 22.078125 C 124.800781 21.8125 124.703125 21.613281 124.507812 21.480469 C 124.316406 21.34375 124.03125 21.277344 123.652344 21.277344 L 121.484375 21.277344 L 121.484375 19.351562 L 123.246094 19.351562 C 123.625 19.351562 123.910156 19.285156 124.09375 19.160156 C 124.277344 19.027344 124.367188 18.84375 124.367188 18.597656 C 124.367188 18.34375 124.277344 18.15625 124.09375 18.027344 C 123.910156 17.902344 123.628906 17.839844 123.246094 17.839844 L 121.679688 17.839844 L 121.679688 22.882812 Z M 121.679688 22.878906 "/>
<path style=" stroke:none;fill-rule:nonzero;fill:rgb(0%,0%,0%);fill-opacity:1;" d="M 128.757812 24.90625 L 128.757812 17.824219 L 131.5 17.824219 L 131.5 24.90625 Z M 130.128906 17.167969 C 129.625 17.167969 129.222656 17.03125 128.921875 16.761719 C 128.621094 16.488281 128.46875 16.148438 128.46875 15.75 C 128.46875 15.347656 128.621094 15.007812 128.921875 14.734375 C 129.226562 14.464844 129.625 14.324219 130.128906 14.324219 C 130.632812 14.324219 131.035156 14.453125 131.335938 14.710938 C 131.636719 14.964844 131.789062 15.296875 131.789062 15.699219 C 131.789062 16.125 131.636719 16.476562 131.335938 16.753906 C 131.03125 17.027344 130.632812 17.167969 130.125 17.167969 Z M 130.128906 17.167969 "/>
<path style=" stroke:none;fill-rule:nonzero;fill:rgb(0%,0%,0%);fill-opacity:1;" d="M 132.617188 24.90625 L 132.617188 23.3125 L 136.464844 18.960938 L 136.917969 19.84375 L 132.71875 19.84375 L 132.71875 17.820312 L 139.140625 17.820312 L 139.140625 19.414062 L 135.292969 23.761719 L 134.835938 22.882812 L 139.273438 22.882812 L 139.273438 24.90625 Z M 132.617188 24.90625 "/>
<path style=" stroke:none;fill-rule:nonzero;fill:rgb(0%,0%,0%);fill-opacity:1;" d="M 143.90625 25.03125 C 143.105469 25.03125 142.394531 24.875 141.773438 24.5625 C 141.152344 24.25 140.660156 23.820312 140.308594 23.261719 C 139.957031 22.707031 139.777344 22.074219 139.777344 21.355469 C 139.777344 20.640625 139.953125 20.007812 140.308594 19.453125 C 140.660156 18.90625 141.152344 18.46875 141.773438 18.164062 C 142.394531 17.851562 143.105469 17.695312 143.90625 17.695312 C 144.742188 17.695312 145.464844 17.875 146.0625 18.234375 C 146.664062 18.589844 147.082031 19.089844 147.320312 19.730469 L 145.191406 20.792969 C 145.039062 20.464844 144.847656 20.222656 144.625 20.074219 C 144.398438 19.925781 144.15625 19.851562 143.894531 19.851562 C 143.652344 19.851562 143.425781 19.910156 143.222656 20.023438 C 143.019531 20.140625 142.855469 20.308594 142.738281 20.527344 C 142.617188 20.75 142.558594 21.023438 142.558594 21.355469 C 142.558594 21.6875 142.617188 21.96875 142.738281 22.1875 C 142.855469 22.414062 143.019531 22.582031 143.222656 22.699219 C 143.425781 22.8125 143.652344 22.871094 143.894531 22.871094 C 144.160156 22.871094 144.40625 22.796875 144.625 22.648438 C 144.851562 22.5 145.039062 22.257812 145.191406 21.929688 L 147.320312 22.992188 C 147.082031 23.632812 146.660156 24.132812 146.0625 24.488281 C 145.464844 24.851562 144.742188 25.027344 143.90625 25.027344 Z M 143.90625 25.03125 "/>
<path style=" stroke:none;fill-rule:nonzero;fill:rgb(0%,0%,0%);fill-opacity:1;" d="M 152.386719 24.90625 L 152.386719 23.625 L 152.199219 23.292969 L 152.199219 20.890625 C 152.199219 20.523438 152.089844 20.246094 151.863281 20.054688 C 151.640625 19.859375 151.28125 19.761719 150.792969 19.761719 C 150.460938 19.761719 150.128906 19.816406 149.796875 19.917969 C 149.460938 20.019531 149.175781 20.160156 148.9375 20.339844 L 148.046875 18.511719 C 148.453125 18.25 148.945312 18.046875 149.511719 17.910156 C 150.085938 17.769531 150.644531 17.699219 151.195312 17.699219 C 152.386719 17.699219 153.304688 17.964844 153.960938 18.503906 C 154.613281 19.039062 154.941406 19.890625 154.941406 21.050781 L 154.941406 24.90625 Z M 150.355469 25.03125 C 149.78125 25.03125 149.304688 24.933594 148.914062 24.734375 C 148.523438 24.539062 148.230469 24.277344 148.03125 23.945312 C 147.828125 23.613281 147.726562 23.242188 147.726562 22.835938 C 147.726562 22.386719 147.839844 22.003906 148.066406 21.683594 C 148.296875 21.363281 148.644531 21.125 149.113281 20.957031 C 149.582031 20.785156 150.183594 20.703125 150.914062 20.703125 L 152.46875 20.703125 L 152.46875 22.074219 L 151.332031 22.074219 C 150.984375 22.074219 150.738281 22.132812 150.589844 22.242188 C 150.4375 22.351562 150.363281 22.511719 150.363281 22.722656 C 150.363281 22.90625 150.433594 23.054688 150.574219 23.171875 C 150.714844 23.292969 150.910156 23.347656 151.152344 23.347656 C 151.382812 23.347656 151.589844 23.292969 151.777344 23.171875 C 151.964844 23.054688 152.105469 22.871094 152.191406 22.621094 L 152.554688 23.503906 C 152.433594 24.019531 152.191406 24.398438 151.820312 24.652344 C 151.453125 24.90625 150.964844 25.035156 150.347656 25.035156 Z M 150.355469 25.03125 "/>
<path style=" stroke:none;fill-rule:nonzero;fill:rgb(0%,0%,0%);fill-opacity:1;" d="M 156.316406 15.265625 L 159.058594 15.265625 L 159.058594 24.90625 L 156.316406 24.90625 Z M 156.316406 15.265625 "/>
</g>
</svg>
