<?xml version="1.0" encoding="UTF-8"?>
<svg xmlns="http://www.w3.org/2000/svg" xmlns:xlink="http://www.w3.org/1999/xlink" width="189px" height="41px" viewBox="0 0 188 41" version="1.1">
<defs>
<clipPath id="clip1">
  <path d="M 0 0 L 185.382812 0 L 185.382812 39.359375 L 0 39.359375 Z M 0 0 "/>
</clipPath>
</defs>
<g id="surface1">
<path style=" stroke:none;fill-rule:evenodd;fill:rgb(100%,100%,100%);fill-opacity:1;" d="M 0 0 L 185.382812 0 L 185.382812 39.359375 L 0 39.359375 Z M 0 0 "/>
<g clip-path="url(#clip1)" clip-rule="nonzero">
<path style="fill:none;stroke-width:0.24;stroke-linecap:butt;stroke-linejoin:miter;stroke:rgb(55.686277%,56.862748%,56.078434%);stroke-opacity:1;stroke-miterlimit:4;" d="M 44.520445 0 L 1.080037 0 C 0.615525 0 0.239902 0.376334 0.239902 0.84032 L 0.239902 8.520389 C 0.239902 8.984375 0.615525 9.359756 1.080037 9.359756 L 44.520445 9.359756 C 44.984001 9.359756 45.359624 8.984375 45.359624 8.520389 L 45.359624 0.84032 C 45.359624 0.376334 44.984001 0 44.520445 0 Z M 44.520445 0 " transform="matrix(4.086957,0,0,4.1,0,0)"/>
</g>
<path style=" stroke:none;fill-rule:nonzero;fill:rgb(0%,0%,0%);fill-opacity:1;" d="M 106.289062 24.449219 L 106.289062 14.804688 L 107.566406 14.804688 L 107.566406 18.632812 L 107.644531 18.632812 C 107.832031 18.324219 108.085938 18.050781 108.414062 17.824219 C 108.746094 17.585938 109.171875 17.464844 109.691406 17.464844 C 110.183594 17.464844 110.617188 17.578125 110.992188 17.796875 C 111.378906 18.011719 111.675781 18.3125 111.882812 18.707031 C 112.105469 19.101562 112.214844 19.5625 112.214844 20.085938 L 112.214844 24.453125 L 110.925781 24.453125 L 110.925781 20.390625 C 110.925781 19.855469 110.785156 19.433594 110.511719 19.121094 C 110.246094 18.800781 109.871094 18.636719 109.382812 18.636719 C 108.824219 18.636719 108.382812 18.796875 108.050781 19.121094 C 107.71875 19.433594 107.554688 19.855469 107.554688 20.390625 L 107.554688 24.453125 L 106.28125 24.453125 Z M 106.289062 24.449219 "/>
<path style=" stroke:none;fill-rule:nonzero;fill:rgb(0%,0%,0%);fill-opacity:1;" d="M 103.839844 24.628906 C 103.148438 24.613281 102.597656 24.410156 102.207031 24.039062 C 101.824219 23.652344 101.628906 23.117188 101.628906 22.425781 L 101.628906 18.800781 L 100.132812 18.800781 L 100.132812 17.644531 L 101.628906 17.644531 L 101.628906 15.992188 L 102.921875 15.800781 L 102.921875 17.644531 L 105.0625 17.644531 L 105.0625 18.800781 L 102.921875 18.800781 L 102.921875 22.34375 C 102.921875 23.097656 103.308594 23.476562 104.089844 23.476562 C 104.246094 23.476562 104.402344 23.472656 104.554688 23.464844 C 104.71875 23.449219 104.890625 23.414062 105.0625 23.367188 L 105.0625 24.496094 C 104.816406 24.550781 104.605469 24.585938 104.429688 24.609375 C 104.253906 24.636719 104.058594 24.644531 103.835938 24.636719 Z M 103.839844 24.628906 "/>
<path style=" stroke:none;fill-rule:nonzero;fill:rgb(0%,0%,0%);fill-opacity:1;" d="M 98.207031 16.171875 C 97.960938 16.171875 97.757812 16.09375 97.601562 15.9375 C 97.453125 15.78125 97.378906 15.589844 97.378906 15.359375 C 97.378906 15.144531 97.453125 14.964844 97.601562 14.808594 C 97.757812 14.644531 97.957031 14.5625 98.207031 14.5625 C 98.433594 14.5625 98.625 14.644531 98.78125 14.808594 C 98.9375 14.964844 99.015625 15.148438 99.015625 15.359375 C 99.015625 15.589844 98.9375 15.78125 98.78125 15.9375 C 98.625 16.09375 98.433594 16.171875 98.207031 16.171875 Z M 97.558594 24.449219 L 97.558594 17.640625 L 98.835938 17.640625 L 98.835938 24.449219 Z M 97.558594 24.449219 "/>
<path style=" stroke:none;fill-rule:nonzero;fill:rgb(0%,0%,0%);fill-opacity:1;" d="M 87.921875 24.453125 L 85.710938 17.644531 L 87.183594 17.644531 L 88.335938 21.75 C 88.410156 22.007812 88.480469 22.273438 88.539062 22.550781 C 88.605469 22.824219 88.644531 23.074219 88.664062 23.292969 L 88.761719 23.292969 C 88.769531 23.078125 88.800781 22.832031 88.859375 22.550781 C 88.910156 22.265625 88.980469 21.992188 89.0625 21.738281 L 90.296875 17.644531 L 91.808594 17.644531 L 93.042969 21.738281 C 93.125 21.996094 93.195312 22.265625 93.246094 22.550781 C 93.3125 22.832031 93.355469 23.082031 93.371094 23.292969 L 93.46875 23.292969 C 93.476562 23.078125 93.511719 22.832031 93.578125 22.550781 C 93.644531 22.265625 93.707031 22 93.769531 21.75 L 94.941406 17.644531 L 96.34375 17.644531 L 94.144531 24.453125 L 92.671875 24.453125 L 91.410156 20.347656 C 91.308594 20.035156 91.234375 19.757812 91.1875 19.507812 C 91.144531 19.261719 91.105469 19.023438 91.078125 18.808594 L 90.996094 18.808594 C 90.96875 19.027344 90.929688 19.261719 90.886719 19.507812 C 90.839844 19.746094 90.769531 20.027344 90.679688 20.347656 L 89.429688 24.453125 L 87.917969 24.453125 Z M 87.921875 24.453125 "/>
<path style=" stroke:none;fill-rule:nonzero;fill:rgb(0%,0%,0%);fill-opacity:1;" d="M 78.898438 24.628906 C 78.195312 24.628906 77.578125 24.476562 77.058594 24.171875 C 76.535156 23.863281 76.132812 23.4375 75.835938 22.894531 C 75.542969 22.351562 75.394531 21.738281 75.394531 21.050781 C 75.394531 20.351562 75.542969 19.738281 75.835938 19.203125 C 76.140625 18.664062 76.554688 18.242188 77.070312 17.9375 C 77.59375 17.625 78.1875 17.46875 78.859375 17.46875 C 79.535156 17.46875 80.117188 17.621094 80.601562 17.925781 C 81.097656 18.21875 81.476562 18.628906 81.742188 19.164062 C 82.007812 19.695312 82.140625 20.3125 82.140625 21.007812 C 82.140625 21.089844 82.136719 21.175781 82.128906 21.269531 C 82.128906 21.359375 82.121094 21.433594 82.097656 21.492188 L 76.714844 21.492188 C 76.789062 22.070312 77.027344 22.542969 77.429688 22.910156 C 77.835938 23.265625 78.332031 23.449219 78.914062 23.449219 C 79.785156 23.449219 80.441406 23.148438 80.875 22.554688 L 81.769531 23.367188 C 81.457031 23.773438 81.050781 24.082031 80.558594 24.300781 C 80.0625 24.523438 79.511719 24.632812 78.894531 24.632812 Z M 78.828125 18.609375 C 78.269531 18.609375 77.804688 18.765625 77.425781 19.078125 C 77.050781 19.390625 76.820312 19.839844 76.730469 20.425781 L 80.820312 20.425781 C 80.746094 19.875 80.542969 19.433594 80.203125 19.101562 C 79.871094 18.769531 79.414062 18.605469 78.828125 18.605469 Z M 78.828125 18.609375 "/>
<path style=" stroke:none;fill-rule:nonzero;fill:rgb(0%,0%,0%);fill-opacity:1;" d="M 70.570312 24.628906 C 70.105469 24.628906 69.683594 24.523438 69.304688 24.3125 C 68.9375 24.089844 68.648438 23.785156 68.429688 23.390625 C 68.207031 22.996094 68.097656 22.535156 68.097656 22 L 68.097656 17.644531 L 69.371094 17.644531 L 69.371094 21.710938 C 69.371094 22.242188 69.511719 22.667969 69.785156 22.988281 C 70.066406 23.300781 70.429688 23.457031 70.867188 23.457031 C 71.390625 23.457031 71.8125 23.300781 72.128906 22.988281 C 72.449219 22.667969 72.613281 22.238281 72.613281 21.710938 L 72.613281 17.644531 L 73.90625 17.644531 L 73.90625 24.453125 L 72.671875 24.453125 L 72.671875 23.460938 L 72.589844 23.460938 C 72.414062 23.773438 72.164062 24.046875 71.832031 24.289062 C 71.5 24.519531 71.082031 24.632812 70.570312 24.632812 Z M 70.570312 24.628906 "/>
<path style=" stroke:none;fill-rule:nonzero;fill:rgb(0%,0%,0%);fill-opacity:1;" d="M 60.320312 24.449219 L 60.320312 17.640625 L 61.542969 17.640625 L 61.542969 18.632812 L 61.625 18.632812 C 61.808594 18.332031 62.066406 18.058594 62.390625 17.824219 C 62.722656 17.585938 63.160156 17.464844 63.710938 17.464844 C 64.199219 17.464844 64.632812 17.578125 65.015625 17.796875 C 65.398438 18.019531 65.703125 18.328125 65.921875 18.71875 C 66.144531 19.105469 66.253906 19.566406 66.253906 20.097656 L 66.253906 24.453125 L 64.960938 24.453125 L 64.960938 20.390625 C 64.960938 19.855469 64.820312 19.433594 64.539062 19.121094 C 64.261719 18.800781 63.882812 18.636719 63.398438 18.636719 C 62.847656 18.636719 62.40625 18.796875 62.078125 19.121094 C 61.757812 19.433594 61.59375 19.855469 61.59375 20.390625 L 61.59375 24.453125 L 60.320312 24.453125 Z M 60.320312 24.449219 "/>
<path style=" stroke:none;fill-rule:nonzero;fill:rgb(0%,0%,0%);fill-opacity:1;" d="M 57.714844 16.171875 C 57.472656 16.171875 57.265625 16.09375 57.109375 15.9375 C 56.964844 15.78125 56.890625 15.589844 56.890625 15.359375 C 56.890625 15.144531 56.964844 14.964844 57.109375 14.808594 C 57.265625 14.644531 57.464844 14.5625 57.714844 14.5625 C 57.945312 14.5625 58.136719 14.644531 58.292969 14.808594 C 58.449219 14.964844 58.523438 15.148438 58.523438 15.359375 C 58.523438 15.589844 58.449219 15.78125 58.292969 15.9375 C 58.136719 16.09375 57.945312 16.171875 57.714844 16.171875 Z M 57.070312 24.449219 L 57.070312 17.640625 L 58.34375 17.640625 L 58.34375 24.449219 Z M 57.070312 24.449219 "/>
<path style=" stroke:none;fill-rule:nonzero;fill:rgb(0%,0%,0%);fill-opacity:1;" d="M 54.621094 24.628906 C 53.925781 24.613281 53.378906 24.410156 52.988281 24.039062 C 52.601562 23.652344 52.410156 23.117188 52.410156 22.425781 L 52.410156 18.800781 L 50.914062 18.800781 L 50.914062 17.644531 L 52.410156 17.644531 L 52.410156 15.992188 L 53.703125 15.800781 L 53.703125 17.644531 L 55.84375 17.644531 L 55.84375 18.800781 L 53.703125 18.800781 L 53.703125 22.34375 C 53.703125 23.097656 54.089844 23.476562 54.871094 23.476562 C 55.027344 23.476562 55.183594 23.472656 55.335938 23.464844 C 55.5 23.449219 55.671875 23.414062 55.84375 23.367188 L 55.84375 24.496094 C 55.597656 24.550781 55.386719 24.585938 55.210938 24.609375 C 55.035156 24.636719 54.839844 24.644531 54.621094 24.636719 Z M 54.621094 24.628906 "/>
<path style=" stroke:none;fill-rule:nonzero;fill:rgb(0%,0%,0%);fill-opacity:1;" d="M 43.929688 24.449219 L 43.929688 17.640625 L 45.152344 17.640625 L 45.152344 18.632812 L 45.234375 18.632812 C 45.417969 18.332031 45.675781 18.058594 46.003906 17.824219 C 46.332031 17.585938 46.769531 17.464844 47.324219 17.464844 C 47.808594 17.464844 48.242188 17.578125 48.625 17.796875 C 49.011719 18.019531 49.3125 18.328125 49.535156 18.71875 C 49.753906 19.105469 49.863281 19.566406 49.863281 20.097656 L 49.863281 24.453125 L 48.574219 24.453125 L 48.574219 20.390625 C 48.574219 19.855469 48.429688 19.433594 48.148438 19.121094 C 47.875 18.800781 47.496094 18.636719 47.007812 18.636719 C 46.460938 18.636719 46.019531 18.796875 45.6875 19.121094 C 45.371094 19.433594 45.207031 19.855469 45.207031 20.390625 L 45.207031 24.453125 L 43.929688 24.453125 Z M 43.929688 24.449219 "/>
<path style=" stroke:none;fill-rule:nonzero;fill:rgb(0%,0%,0%);fill-opacity:1;" d="M 38.960938 24.628906 C 38.289062 24.628906 37.695312 24.476562 37.164062 24.171875 C 36.640625 23.863281 36.230469 23.441406 35.929688 22.90625 C 35.632812 22.367188 35.488281 21.75 35.488281 21.0625 C 35.488281 20.363281 35.632812 19.75 35.929688 19.214844 C 36.230469 18.675781 36.644531 18.25 37.164062 17.9375 C 37.695312 17.625 38.292969 17.46875 38.960938 17.46875 C 39.632812 17.46875 40.222656 17.625 40.746094 17.9375 C 41.277344 18.242188 41.691406 18.664062 41.980469 19.203125 C 42.285156 19.738281 42.433594 20.347656 42.433594 21.035156 C 42.433594 21.734375 42.285156 22.351562 41.980469 22.898438 C 41.6875 23.441406 41.277344 23.867188 40.746094 24.175781 C 40.222656 24.480469 39.632812 24.632812 38.960938 24.632812 Z M 38.960938 23.445312 C 39.617188 23.445312 40.148438 23.21875 40.554688 22.765625 C 40.960938 22.316406 41.160156 21.742188 41.160156 21.046875 C 41.160156 20.585938 41.070312 20.175781 40.886719 19.820312 C 40.703125 19.460938 40.445312 19.175781 40.117188 18.964844 C 39.785156 18.753906 39.402344 18.652344 38.964844 18.652344 C 38.308594 18.652344 37.777344 18.875 37.371094 19.328125 C 36.980469 19.777344 36.78125 20.351562 36.78125 21.050781 C 36.78125 21.507812 36.867188 21.921875 37.042969 22.289062 C 37.226562 22.644531 37.484375 22.929688 37.8125 23.140625 C 38.144531 23.339844 38.527344 23.445312 38.964844 23.445312 Z M 38.960938 23.445312 "/>
<path style=" stroke:none;fill-rule:nonzero;fill:rgb(0%,0%,0%);fill-opacity:1;" d="M 31.5 24.628906 C 30.804688 24.628906 30.152344 24.503906 29.546875 24.253906 C 28.953125 23.996094 28.433594 23.644531 27.984375 23.195312 C 27.535156 22.734375 27.183594 22.203125 26.925781 21.59375 C 26.679688 20.988281 26.554688 20.335938 26.554688 19.640625 C 26.554688 18.941406 26.675781 18.289062 26.925781 17.683594 C 27.171875 17.078125 27.511719 16.542969 27.953125 16.085938 C 28.40625 15.625 28.921875 15.269531 29.519531 15.011719 C 30.125 14.75 30.78125 14.625 31.5 14.625 C 32.222656 14.625 32.878906 14.746094 33.476562 14.996094 C 34.074219 15.242188 34.589844 15.625 35.03125 16.140625 L 34.050781 17.011719 C 33.714844 16.605469 33.328125 16.316406 32.898438 16.140625 C 32.480469 15.964844 32.011719 15.878906 31.5 15.878906 C 30.804688 15.878906 30.1875 16.042969 29.644531 16.375 C 29.113281 16.707031 28.695312 17.15625 28.390625 17.722656 C 28.089844 18.285156 27.9375 18.921875 27.9375 19.640625 C 27.9375 20.363281 28.09375 21.007812 28.40625 21.566406 C 28.722656 22.128906 29.15625 22.566406 29.695312 22.890625 C 30.242188 23.203125 30.855469 23.359375 31.535156 23.359375 C 32.101562 23.359375 32.59375 23.265625 33.007812 23.082031 C 33.417969 22.890625 33.789062 22.605469 34.117188 22.230469 L 35.09375 23.042969 C 34.691406 23.539062 34.1875 23.925781 33.582031 24.214844 C 32.984375 24.488281 32.292969 24.628906 31.492188 24.628906 Z M 31.5 24.628906 "/>
<path style=" stroke:none;fill-rule:evenodd;fill:rgb(0%,0%,0%);fill-opacity:1;" d="M 118.578125 15.222656 L 124.144531 15.222656 C 124.585938 15.222656 124.941406 15.578125 124.941406 16.023438 L 124.941406 17.222656 L 118.578125 17.222656 C 118.136719 17.222656 117.78125 16.867188 117.78125 16.425781 L 117.78125 16.023438 C 117.78125 15.578125 118.136719 15.222656 118.578125 15.222656 Z M 118.578125 15.222656 "/>
<path style=" stroke:none;fill-rule:nonzero;fill:rgb(0%,0%,0%);fill-opacity:1;" d="M 119.605469 24.324219 L 119.605469 15.226562 L 124.371094 15.226562 C 125.601562 15.226562 126.511719 15.449219 127.105469 15.890625 C 127.695312 16.335938 127.996094 16.90625 127.996094 17.601562 C 127.996094 18.066406 127.867188 18.472656 127.621094 18.832031 C 127.371094 19.1875 127.011719 19.472656 126.539062 19.675781 C 126.070312 19.882812 125.503906 19.984375 124.832031 19.984375 L 125.089844 19.316406 C 125.773438 19.316406 126.359375 19.414062 126.859375 19.609375 C 127.359375 19.808594 127.746094 20.09375 128.019531 20.46875 C 128.292969 20.839844 128.433594 21.292969 128.433594 21.820312 C 128.433594 22.605469 128.109375 23.222656 127.464844 23.660156 C 126.816406 24.105469 125.875 24.320312 124.636719 24.320312 L 119.613281 24.320312 Z M 122.425781 22.296875 L 124.394531 22.296875 C 124.773438 22.296875 125.0625 22.230469 125.253906 22.09375 C 125.445312 21.960938 125.542969 21.761719 125.542969 21.496094 C 125.542969 21.230469 125.445312 21.03125 125.253906 20.898438 C 125.0625 20.761719 124.773438 20.695312 124.394531 20.695312 L 122.230469 20.695312 L 122.230469 18.769531 L 123.988281 18.769531 C 124.371094 18.769531 124.652344 18.703125 124.835938 18.578125 C 125.019531 18.445312 125.109375 18.261719 125.109375 18.015625 C 125.109375 17.761719 125.019531 17.574219 124.835938 17.445312 C 124.652344 17.320312 124.375 17.257812 123.988281 17.257812 L 122.425781 17.257812 L 122.425781 22.300781 Z M 122.425781 22.296875 "/>
<path style=" stroke:none;fill-rule:nonzero;fill:rgb(0%,0%,0%);fill-opacity:1;" d="M 129.503906 24.324219 L 129.503906 17.242188 L 132.246094 17.242188 L 132.246094 24.324219 Z M 130.871094 16.585938 C 130.371094 16.585938 129.964844 16.449219 129.667969 16.179688 C 129.363281 15.90625 129.214844 15.566406 129.214844 15.164062 C 129.214844 14.765625 129.363281 14.421875 129.667969 14.152344 C 129.96875 13.882812 130.371094 13.742188 130.871094 13.742188 C 131.375 13.742188 131.78125 13.871094 132.078125 14.128906 C 132.378906 14.382812 132.53125 14.714844 132.53125 15.117188 C 132.53125 15.542969 132.378906 15.894531 132.078125 16.171875 C 131.777344 16.445312 131.375 16.585938 130.867188 16.585938 Z M 130.871094 16.585938 "/>
<path style=" stroke:none;fill-rule:nonzero;fill:rgb(0%,0%,0%);fill-opacity:1;" d="M 133.367188 24.324219 L 133.367188 22.730469 L 137.210938 18.378906 L 137.664062 19.261719 L 133.46875 19.261719 L 133.46875 17.238281 L 139.886719 17.238281 L 139.886719 18.832031 L 136.042969 23.179688 L 135.585938 22.300781 L 140.023438 22.300781 L 140.023438 24.324219 Z M 133.367188 24.324219 "/>
<path style=" stroke:none;fill-rule:nonzero;fill:rgb(0%,0%,0%);fill-opacity:1;" d="M 144.652344 24.449219 C 143.851562 24.449219 143.140625 24.292969 142.519531 23.980469 C 141.898438 23.667969 141.410156 23.238281 141.058594 22.679688 C 140.707031 22.125 140.527344 21.492188 140.527344 20.773438 C 140.527344 20.058594 140.703125 19.425781 141.058594 18.871094 C 141.410156 18.324219 141.898438 17.886719 142.519531 17.582031 C 143.140625 17.269531 143.851562 17.113281 144.652344 17.113281 C 145.492188 17.113281 146.210938 17.292969 146.8125 17.652344 C 147.414062 18.007812 147.828125 18.507812 148.066406 19.148438 L 145.941406 20.207031 C 145.785156 19.882812 145.59375 19.640625 145.371094 19.492188 C 145.148438 19.34375 144.902344 19.269531 144.640625 19.269531 C 144.398438 19.269531 144.175781 19.328125 143.972656 19.441406 C 143.765625 19.558594 143.601562 19.726562 143.484375 19.945312 C 143.367188 20.167969 143.304688 20.441406 143.304688 20.773438 C 143.304688 21.105469 143.367188 21.386719 143.484375 21.605469 C 143.601562 21.832031 143.765625 22 143.972656 22.117188 C 144.175781 22.230469 144.398438 22.289062 144.640625 22.289062 C 144.90625 22.289062 145.152344 22.214844 145.371094 22.066406 C 145.597656 21.917969 145.785156 21.675781 145.941406 21.347656 L 148.066406 22.410156 C 147.828125 23.050781 147.410156 23.550781 146.8125 23.90625 C 146.210938 24.269531 145.492188 24.445312 144.652344 24.445312 Z M 144.652344 24.449219 "/>
<path style=" stroke:none;fill-rule:nonzero;fill:rgb(0%,0%,0%);fill-opacity:1;" d="M 153.128906 24.324219 L 153.128906 23.042969 L 152.941406 22.710938 L 152.941406 20.308594 C 152.941406 19.941406 152.832031 19.664062 152.605469 19.472656 C 152.386719 19.277344 152.027344 19.179688 151.535156 19.179688 C 151.207031 19.179688 150.875 19.234375 150.539062 19.335938 C 150.203125 19.4375 149.917969 19.578125 149.679688 19.757812 L 148.789062 17.929688 C 149.199219 17.667969 149.6875 17.464844 150.257812 17.328125 C 150.828125 17.1875 151.390625 17.117188 151.941406 17.117188 C 153.128906 17.117188 154.050781 17.382812 154.703125 17.921875 C 155.359375 18.457031 155.683594 19.308594 155.683594 20.46875 L 155.683594 24.324219 Z M 151.097656 24.449219 C 150.527344 24.449219 150.046875 24.351562 149.65625 24.152344 C 149.269531 23.957031 148.972656 23.695312 148.773438 23.363281 C 148.574219 23.03125 148.472656 22.660156 148.472656 22.253906 C 148.472656 21.804688 148.585938 21.421875 148.808594 21.101562 C 149.039062 20.78125 149.386719 20.539062 149.855469 20.371094 C 150.328125 20.203125 150.925781 20.121094 151.660156 20.121094 L 153.210938 20.121094 L 153.210938 21.492188 L 152.074219 21.492188 C 151.726562 21.492188 151.484375 21.550781 151.332031 21.660156 C 151.179688 21.769531 151.105469 21.929688 151.105469 22.140625 C 151.105469 22.324219 151.175781 22.472656 151.320312 22.589844 C 151.457031 22.710938 151.65625 22.765625 151.894531 22.765625 C 152.125 22.765625 152.332031 22.710938 152.519531 22.589844 C 152.710938 22.472656 152.847656 22.289062 152.933594 22.039062 L 153.296875 22.921875 C 153.179688 23.4375 152.933594 23.816406 152.566406 24.070312 C 152.199219 24.324219 151.707031 24.453125 151.089844 24.453125 Z M 151.097656 24.449219 "/>
<path style=" stroke:none;fill-rule:nonzero;fill:rgb(0%,0%,0%);fill-opacity:1;" d="M 157.066406 14.683594 L 159.808594 14.683594 L 159.808594 24.324219 L 157.066406 24.324219 Z M 157.066406 14.683594 "/>
</g>
</svg>
