<?xml version="1.0" encoding="UTF-8"?>
<svg xmlns="http://www.w3.org/2000/svg" xmlns:xlink="http://www.w3.org/1999/xlink" width="171px" height="36px" viewBox="0 0 168 36" version="1.1">
<defs>
<clipPath id="clip1">
  <path d="M 0 0 L 164.160156 0 L 164.160156 33.601562 L 0 33.601562 Z M 0 0 "/>
</clipPath>
</defs>
<g id="surface1">
<path style=" stroke:none;fill-rule:nonzero;fill:rgb(100%,100%,100%);fill-opacity:1;" d="M 3.808594 11.496094 C 3.808594 6.207031 8.097656 1.921875 13.382812 1.921875 L 150.773438 1.921875 C 156.058594 1.921875 160.347656 6.207031 160.347656 11.496094 L 160.347656 19.15625 C 160.347656 24.445312 156.058594 28.730469 150.773438 28.730469 L 13.382812 28.730469 C 8.097656 28.730469 3.808594 24.445312 3.808594 19.15625 Z M 3.808594 11.496094 "/>
<g clip-path="url(#clip1)" clip-rule="nonzero">
<path style="fill:none;stroke-width:0.24;stroke-linecap:butt;stroke-linejoin:miter;stroke:rgb(82.745099%,82.745099%,82.745099%);stroke-opacity:1;stroke-miterlimit:4;" d="M 0.952148 2.874023 C 0.952148 1.551758 2.024414 0.480469 3.345703 0.480469 L 37.693359 0.480469 C 39.014648 0.480469 40.086914 1.551758 40.086914 2.874023 L 40.086914 4.789062 C 40.086914 6.111328 39.014648 7.182617 37.693359 7.182617 L 3.345703 7.182617 C 2.024414 7.182617 0.952148 6.111328 0.952148 4.789062 Z M 0.952148 2.874023 " transform="matrix(4,0,0,4,0,0)"/>
</g>
<path style=" stroke:none;fill-rule:nonzero;fill:rgb(2.745098%,3.921569%,5.098039%);fill-opacity:1;" d="M 92.570312 20.136719 L 92.570312 10.753906 L 93.992188 10.753906 L 93.992188 14.398438 L 94.070312 14.398438 C 94.238281 14.113281 94.488281 13.859375 94.808594 13.636719 C 95.140625 13.410156 95.554688 13.300781 96.054688 13.300781 C 96.519531 13.300781 96.9375 13.40625 97.304688 13.621094 C 97.679688 13.835938 97.976562 14.132812 98.1875 14.519531 C 98.410156 14.902344 98.523438 15.351562 98.523438 15.859375 L 98.523438 20.136719 L 97.105469 20.136719 L 97.105469 16.195312 C 97.105469 15.695312 96.972656 15.304688 96.714844 15.015625 C 96.457031 14.71875 96.097656 14.570312 95.628906 14.570312 C 95.128906 14.570312 94.726562 14.71875 94.4375 15.015625 C 94.140625 15.304688 93.992188 15.695312 93.992188 16.195312 L 93.992188 20.136719 Z M 92.570312 20.136719 "/>
<path style=" stroke:none;fill-rule:nonzero;fill:rgb(2.745098%,3.921569%,5.098039%);fill-opacity:1;" d="M 90.164062 20.308594 C 89.46875 20.300781 88.910156 20.105469 88.5 19.714844 C 88.097656 19.324219 87.894531 18.789062 87.894531 18.109375 L 87.894531 14.742188 L 86.488281 14.742188 L 86.488281 13.472656 L 87.894531 13.472656 L 87.894531 11.847656 L 89.316406 11.660156 L 89.316406 13.472656 L 91.367188 13.472656 L 91.367188 14.742188 L 89.316406 14.742188 L 89.316406 18.003906 C 89.316406 18.359375 89.414062 18.628906 89.613281 18.808594 C 89.816406 18.976562 90.085938 19.0625 90.414062 19.0625 C 90.574219 19.0625 90.730469 19.058594 90.882812 19.050781 C 91.042969 19.035156 91.203125 19.003906 91.367188 18.960938 L 91.367188 20.179688 C 91.136719 20.230469 90.9375 20.269531 90.765625 20.289062 C 90.597656 20.304688 90.390625 20.316406 90.160156 20.316406 Z M 90.164062 20.308594 "/>
<path style=" stroke:none;fill-rule:nonzero;fill:rgb(2.745098%,3.921569%,5.098039%);fill-opacity:1;" d="M 84.519531 12.234375 C 84.269531 12.234375 84.058594 12.152344 83.886719 11.980469 C 83.71875 11.8125 83.632812 11.601562 83.632812 11.347656 C 83.632812 11.117188 83.714844 10.914062 83.886719 10.742188 C 84.054688 10.574219 84.269531 10.488281 84.519531 10.488281 C 84.78125 10.488281 84.988281 10.570312 85.152344 10.742188 C 85.320312 10.910156 85.40625 11.117188 85.40625 11.347656 C 85.40625 11.601562 85.324219 11.808594 85.152344 11.980469 C 84.992188 12.148438 84.78125 12.234375 84.519531 12.234375 Z M 83.808594 20.132812 L 83.808594 13.46875 L 85.226562 13.46875 L 85.226562 20.132812 Z M 83.808594 20.132812 "/>
<path style=" stroke:none;fill-rule:nonzero;fill:rgb(2.745098%,3.921569%,5.098039%);fill-opacity:1;" d="M 74.15625 20.136719 L 71.972656 13.472656 L 73.621094 13.472656 L 74.664062 17.359375 C 74.726562 17.601562 74.785156 17.851562 74.839844 18.113281 C 74.902344 18.363281 74.949219 18.601562 74.972656 18.824219 L 75.0625 18.824219 C 75.101562 18.351562 75.191406 17.859375 75.34375 17.347656 L 76.511719 13.472656 L 78.160156 13.472656 L 79.328125 17.347656 C 79.398438 17.589844 79.460938 17.84375 79.515625 18.113281 C 79.578125 18.371094 79.621094 18.609375 79.636719 18.824219 L 79.726562 18.824219 C 79.742188 18.609375 79.78125 18.371094 79.835938 18.113281 C 79.898438 17.84375 79.960938 17.59375 80.023438 17.359375 L 81.097656 13.472656 L 82.636719 13.472656 L 80.464844 20.136719 L 78.878906 20.136719 L 77.671875 16.234375 C 77.585938 15.960938 77.515625 15.703125 77.472656 15.472656 C 77.429688 15.230469 77.390625 15.003906 77.363281 14.789062 L 77.273438 14.789062 C 77.242188 15.011719 77.207031 15.238281 77.164062 15.472656 C 77.128906 15.703125 77.0625 15.960938 76.976562 16.234375 L 75.808594 20.136719 L 74.144531 20.136719 Z M 74.15625 20.136719 "/>
<path style=" stroke:none;fill-rule:nonzero;fill:rgb(2.745098%,3.921569%,5.098039%);fill-opacity:1;" d="M 65.328125 20.308594 C 64.640625 20.308594 64.035156 20.15625 63.515625 19.851562 C 62.996094 19.546875 62.59375 19.136719 62.296875 18.621094 C 62.007812 18.09375 61.867188 17.492188 61.867188 16.824219 C 61.867188 16.117188 62.015625 15.5 62.3125 14.972656 C 62.609375 14.445312 63.007812 14.03125 63.519531 13.738281 C 64.039062 13.445312 64.628906 13.296875 65.289062 13.296875 C 65.941406 13.296875 66.507812 13.445312 66.992188 13.738281 C 67.476562 14.027344 67.84375 14.429688 68.105469 14.949219 C 68.371094 15.457031 68.507812 16.050781 68.507812 16.730469 C 68.507812 16.820312 68.503906 16.914062 68.496094 17.011719 C 68.496094 17.113281 68.488281 17.191406 68.46875 17.253906 L 63.332031 17.253906 C 63.410156 17.761719 63.632812 18.1875 63.988281 18.523438 C 64.34375 18.855469 64.800781 19.019531 65.355469 19.019531 C 66.179688 19.019531 66.796875 18.738281 67.207031 18.175781 L 68.171875 19.089844 C 67.867188 19.464844 67.472656 19.765625 66.980469 19.988281 C 66.496094 20.203125 65.949219 20.308594 65.332031 20.308594 Z M 65.261719 14.503906 C 64.761719 14.503906 64.335938 14.644531 63.988281 14.921875 C 63.648438 15.195312 63.433594 15.601562 63.34375 16.128906 L 67.054688 16.128906 C 66.984375 15.628906 66.796875 15.234375 66.492188 14.949219 C 66.195312 14.652344 65.785156 14.503906 65.261719 14.503906 Z M 65.261719 14.503906 "/>
<path style=" stroke:none;fill-rule:nonzero;fill:rgb(2.745098%,3.921569%,5.098039%);fill-opacity:1;" d="M 56.984375 20.308594 C 56.535156 20.308594 56.132812 20.199219 55.765625 19.988281 C 55.40625 19.765625 55.117188 19.460938 54.890625 19.074219 C 54.675781 18.691406 54.570312 18.242188 54.570312 17.734375 L 54.570312 13.472656 L 55.992188 13.472656 L 55.992188 17.398438 C 55.992188 17.898438 56.121094 18.300781 56.378906 18.59375 C 56.648438 18.886719 56.992188 19.035156 57.410156 19.035156 C 57.875 19.035156 58.253906 18.886719 58.539062 18.59375 C 58.835938 18.296875 58.984375 17.898438 58.984375 17.398438 L 58.984375 13.472656 L 60.402344 13.472656 L 60.402344 20.136719 L 59.035156 20.136719 L 59.035156 19.195312 L 58.957031 19.195312 C 58.789062 19.484375 58.535156 19.738281 58.203125 19.972656 C 57.882812 20.195312 57.476562 20.308594 56.984375 20.308594 Z M 56.984375 20.308594 "/>
<path style=" stroke:none;fill-rule:nonzero;fill:rgb(2.745098%,3.921569%,5.098039%);fill-opacity:1;" d="M 46.847656 20.136719 L 46.847656 13.472656 L 48.214844 13.472656 L 48.214844 14.410156 L 48.296875 14.410156 C 48.464844 14.125 48.710938 13.871094 49.03125 13.648438 C 49.363281 13.414062 49.792969 13.300781 50.320312 13.300781 C 50.785156 13.300781 51.203125 13.40625 51.578125 13.621094 C 51.957031 13.835938 52.253906 14.140625 52.464844 14.53125 C 52.6875 14.914062 52.800781 15.363281 52.800781 15.871094 L 52.800781 20.136719 L 51.378906 20.136719 L 51.378906 16.207031 C 51.378906 15.707031 51.246094 15.308594 50.976562 15.015625 C 50.707031 14.71875 50.34375 14.570312 49.886719 14.570312 C 49.394531 14.570312 49.003906 14.71875 48.707031 15.015625 C 48.410156 15.3125 48.265625 15.707031 48.265625 16.207031 L 48.265625 20.136719 L 46.84375 20.136719 Z M 46.847656 20.136719 "/>
<path style=" stroke:none;fill-rule:nonzero;fill:rgb(2.745098%,3.921569%,5.098039%);fill-opacity:1;" d="M 44.230469 12.234375 C 43.980469 12.234375 43.773438 12.152344 43.601562 11.980469 C 43.433594 11.8125 43.34375 11.601562 43.34375 11.347656 C 43.34375 11.117188 43.429688 10.914062 43.601562 10.742188 C 43.769531 10.574219 43.980469 10.488281 44.230469 10.488281 C 44.492188 10.488281 44.699219 10.570312 44.863281 10.742188 C 45.03125 10.910156 45.121094 11.117188 45.121094 11.347656 C 45.121094 11.601562 45.035156 11.808594 44.863281 11.980469 C 44.703125 12.148438 44.492188 12.234375 44.230469 12.234375 Z M 43.519531 20.132812 L 43.519531 13.46875 L 44.941406 13.46875 L 44.941406 20.132812 Z M 43.519531 20.132812 "/>
<path style=" stroke:none;fill-rule:nonzero;fill:rgb(2.745098%,3.921569%,5.098039%);fill-opacity:1;" d="M 41.117188 20.308594 C 40.421875 20.300781 39.863281 20.105469 39.453125 19.714844 C 39.046875 19.324219 38.847656 18.789062 38.847656 18.109375 L 38.847656 14.742188 L 37.441406 14.742188 L 37.441406 13.472656 L 38.847656 13.472656 L 38.847656 11.847656 L 40.269531 11.660156 L 40.269531 13.472656 L 42.320312 13.472656 L 42.320312 14.742188 L 40.269531 14.742188 L 40.269531 18.003906 C 40.269531 18.359375 40.367188 18.628906 40.5625 18.808594 C 40.769531 18.976562 41.035156 19.0625 41.367188 19.0625 C 41.527344 19.0625 41.683594 19.058594 41.835938 19.050781 C 41.996094 19.035156 42.15625 19.003906 42.320312 18.960938 L 42.320312 20.179688 C 42.089844 20.230469 41.886719 20.269531 41.714844 20.289062 C 41.546875 20.304688 41.34375 20.316406 41.113281 20.316406 Z M 41.117188 20.308594 "/>
<path style=" stroke:none;fill-rule:nonzero;fill:rgb(2.745098%,3.921569%,5.098039%);fill-opacity:1;" d="M 30.480469 20.136719 L 30.480469 13.472656 L 31.847656 13.472656 L 31.847656 14.410156 L 31.929688 14.410156 C 32.097656 14.125 32.34375 13.871094 32.664062 13.648438 C 32.996094 13.414062 33.425781 13.300781 33.953125 13.300781 C 34.414062 13.300781 34.835938 13.40625 35.210938 13.621094 C 35.589844 13.835938 35.882812 14.140625 36.097656 14.53125 C 36.320312 14.914062 36.433594 15.363281 36.433594 15.871094 L 36.433594 20.136719 L 35.011719 20.136719 L 35.011719 16.207031 C 35.011719 15.707031 34.878906 15.308594 34.609375 15.015625 C 34.339844 14.71875 33.976562 14.570312 33.519531 14.570312 C 33.027344 14.570312 32.636719 14.71875 32.339844 15.015625 C 32.042969 15.3125 31.894531 15.707031 31.894531 16.207031 L 31.894531 20.136719 L 30.476562 20.136719 Z M 30.480469 20.136719 "/>
<path style=" stroke:none;fill-rule:nonzero;fill:rgb(2.745098%,3.921569%,5.098039%);fill-opacity:1;" d="M 25.574219 20.308594 C 24.914062 20.308594 24.324219 20.15625 23.808594 19.851562 C 23.289062 19.546875 22.878906 19.132812 22.574219 18.605469 C 22.28125 18.074219 22.132812 17.476562 22.132812 16.808594 C 22.132812 16.128906 22.28125 15.523438 22.574219 14.996094 C 22.878906 14.46875 23.292969 14.050781 23.808594 13.746094 C 24.328125 13.445312 24.914062 13.292969 25.574219 13.292969 C 26.234375 13.292969 26.828125 13.445312 27.34375 13.746094 C 27.871094 14.050781 28.285156 14.46875 28.574219 14.996094 C 28.871094 15.523438 29.019531 16.125 29.019531 16.792969 C 29.019531 17.472656 28.871094 18.074219 28.574219 18.605469 C 28.28125 19.132812 27.867188 19.546875 27.34375 19.851562 C 26.824219 20.15625 26.234375 20.308594 25.574219 20.308594 Z M 25.574219 19.007812 C 26.183594 19.007812 26.671875 18.804688 27.035156 18.390625 C 27.410156 17.980469 27.601562 17.453125 27.601562 16.808594 C 27.601562 16.15625 27.410156 15.625 27.035156 15.210938 C 26.667969 14.800781 26.183594 14.597656 25.574219 14.597656 C 24.96875 14.597656 24.476562 14.800781 24.101562 15.210938 C 23.730469 15.625 23.550781 16.15625 23.550781 16.808594 C 23.550781 17.453125 23.734375 17.980469 24.101562 18.390625 C 24.476562 18.804688 24.96875 19.007812 25.574219 19.007812 Z M 25.574219 19.007812 "/>
<path style=" stroke:none;fill-rule:nonzero;fill:rgb(2.745098%,3.921569%,5.098039%);fill-opacity:1;" d="M 18.238281 20.308594 C 17.550781 20.308594 16.910156 20.183594 16.324219 19.933594 C 15.730469 19.679688 15.21875 19.335938 14.785156 18.898438 C 14.347656 18.453125 14 17.941406 13.753906 17.359375 C 13.511719 16.769531 13.386719 16.136719 13.386719 15.457031 C 13.386719 14.777344 13.507812 14.140625 13.753906 13.550781 C 13.992188 12.960938 14.328125 12.445312 14.757812 11.996094 C 15.191406 11.546875 15.707031 11.199219 16.296875 10.953125 C 16.886719 10.699219 17.53125 10.574219 18.238281 10.574219 C 18.9375 10.574219 19.574219 10.695312 20.15625 10.941406 C 20.746094 11.179688 21.257812 11.554688 21.683594 12.066406 L 20.625 13.03125 C 20.3125 12.664062 19.960938 12.398438 19.5625 12.238281 C 19.171875 12.070312 18.726562 11.984375 18.234375 11.984375 C 17.574219 11.984375 16.992188 12.136719 16.492188 12.441406 C 15.992188 12.742188 15.605469 13.160156 15.324219 13.6875 C 15.046875 14.207031 14.90625 14.796875 14.90625 15.457031 C 14.90625 16.117188 15.050781 16.707031 15.335938 17.222656 C 15.632812 17.742188 16.027344 18.152344 16.527344 18.457031 C 17.035156 18.753906 17.621094 18.898438 18.273438 18.898438 C 18.773438 18.898438 19.214844 18.816406 19.601562 18.644531 C 19.992188 18.464844 20.339844 18.199219 20.644531 17.851562 L 21.730469 18.777344 C 21.347656 19.230469 20.863281 19.605469 20.285156 19.886719 C 19.703125 20.164062 19.019531 20.304688 18.230469 20.304688 Z M 18.238281 20.308594 "/>
<path style=" stroke:none;fill-rule:evenodd;fill:rgb(0%,0%,0%);fill-opacity:1;" d="M 103.328125 10.519531 L 109.253906 10.519531 C 109.71875 10.519531 110.101562 10.898438 110.101562 11.367188 L 110.101562 12.640625 L 103.324219 12.640625 C 102.855469 12.640625 102.476562 12.261719 102.476562 11.792969 L 102.476562 11.367188 C 102.476562 10.898438 102.855469 10.519531 103.324219 10.519531 Z M 103.328125 10.519531 "/>
<path style=" stroke:none;fill-rule:nonzero;fill:rgb(0%,0%,0%);fill-opacity:1;" d="M 104.425781 20.175781 L 104.425781 10.519531 L 109.496094 10.519531 C 110.804688 10.519531 111.777344 10.757812 112.40625 11.226562 C 113.039062 11.699219 113.355469 12.304688 113.355469 13.042969 C 113.355469 13.535156 113.222656 13.96875 112.957031 14.347656 C 112.6875 14.726562 112.304688 15.023438 111.808594 15.242188 C 111.308594 15.460938 110.703125 15.566406 109.988281 15.566406 L 110.261719 14.859375 C 110.984375 14.859375 111.613281 14.964844 112.144531 15.171875 C 112.675781 15.378906 113.089844 15.683594 113.378906 16.078125 C 113.671875 16.476562 113.820312 16.957031 113.820312 17.515625 C 113.820312 18.351562 113.476562 19.003906 112.792969 19.472656 C 112.105469 19.941406 111.101562 20.171875 109.78125 20.171875 L 104.433594 20.171875 Z M 107.425781 18.023438 L 109.519531 18.023438 C 109.925781 18.023438 110.226562 17.953125 110.433594 17.8125 C 110.636719 17.667969 110.738281 17.460938 110.738281 17.175781 C 110.738281 16.894531 110.636719 16.683594 110.433594 16.539062 C 110.226562 16.394531 109.925781 16.328125 109.519531 16.328125 L 107.214844 16.328125 L 107.214844 14.285156 L 109.089844 14.285156 C 109.492188 14.285156 109.792969 14.214844 109.988281 14.074219 C 110.183594 13.941406 110.28125 13.738281 110.28125 13.480469 C 110.28125 13.210938 110.183594 13.011719 109.988281 12.875 C 109.792969 12.742188 109.496094 12.675781 109.089844 12.675781 L 107.425781 12.675781 Z M 107.425781 18.023438 "/>
<path style=" stroke:none;fill-rule:nonzero;fill:rgb(0%,0%,0%);fill-opacity:1;" d="M 114.960938 20.175781 L 114.960938 12.65625 L 117.878906 12.65625 L 117.878906 20.175781 Z M 116.414062 11.964844 C 115.878906 11.964844 115.453125 11.820312 115.132812 11.53125 C 114.8125 11.242188 114.648438 10.882812 114.648438 10.457031 C 114.648438 10.027344 114.808594 9.671875 115.132812 9.378906 C 115.453125 9.09375 115.882812 8.949219 116.414062 8.949219 C 116.953125 8.949219 117.378906 9.085938 117.699219 9.355469 C 118.019531 9.628906 118.183594 9.976562 118.183594 10.402344 C 118.183594 10.855469 118.023438 11.230469 117.703125 11.523438 C 117.382812 11.816406 116.957031 11.964844 116.414062 11.964844 Z M 116.414062 11.964844 "/>
<path style=" stroke:none;fill-rule:nonzero;fill:rgb(0%,0%,0%);fill-opacity:1;" d="M 119.066406 20.175781 L 119.066406 18.484375 L 123.160156 13.867188 L 123.644531 14.804688 L 119.171875 14.804688 L 119.171875 12.65625 L 126.003906 12.65625 L 126.003906 14.347656 L 121.910156 18.964844 L 121.425781 18.027344 L 126.152344 18.027344 L 126.152344 20.175781 L 119.0625 20.175781 Z M 119.066406 20.175781 "/>
<path style=" stroke:none;fill-rule:nonzero;fill:rgb(0%,0%,0%);fill-opacity:1;" d="M 131.089844 20.308594 C 130.234375 20.308594 129.480469 20.144531 128.816406 19.8125 C 128.152344 19.484375 127.636719 19.023438 127.261719 18.433594 C 126.882812 17.84375 126.695312 17.167969 126.695312 16.40625 C 126.695312 15.648438 126.882812 14.976562 127.261719 14.390625 C 127.636719 13.808594 128.15625 13.347656 128.816406 13.019531 C 129.480469 12.691406 130.234375 12.523438 131.089844 12.523438 C 131.980469 12.523438 132.742188 12.714844 133.382812 13.097656 C 134.023438 13.476562 134.46875 14.007812 134.71875 14.683594 L 132.460938 15.8125 C 132.296875 15.464844 132.09375 15.207031 131.851562 15.050781 C 131.613281 14.890625 131.351562 14.816406 131.070312 14.816406 C 130.816406 14.816406 130.574219 14.875 130.359375 14.996094 C 130.144531 15.117188 129.96875 15.296875 129.84375 15.527344 C 129.714844 15.765625 129.65625 16.054688 129.65625 16.40625 C 129.65625 16.761719 129.71875 17.054688 129.84375 17.292969 C 129.972656 17.53125 130.144531 17.710938 130.359375 17.832031 C 130.574219 17.953125 130.816406 18.011719 131.070312 18.011719 C 131.351562 18.011719 131.613281 17.933594 131.851562 17.777344 C 132.09375 17.621094 132.292969 17.363281 132.460938 17.015625 L 134.71875 18.144531 C 134.46875 18.824219 134.019531 19.351562 133.382812 19.730469 C 132.742188 20.113281 131.980469 20.304688 131.089844 20.304688 Z M 131.089844 20.308594 "/>
<path style=" stroke:none;fill-rule:nonzero;fill:rgb(0%,0%,0%);fill-opacity:1;" d="M 140.117188 20.175781 L 140.117188 18.816406 L 139.910156 18.464844 L 139.910156 15.914062 C 139.910156 15.527344 139.792969 15.230469 139.554688 15.027344 C 139.320312 14.824219 138.941406 14.71875 138.414062 14.71875 C 138.0625 14.71875 137.710938 14.777344 137.355469 14.882812 C 137 14.992188 136.695312 15.144531 136.441406 15.332031 L 135.492188 13.390625 C 135.929688 13.113281 136.449219 12.898438 137.054688 12.753906 C 137.664062 12.605469 138.261719 12.527344 138.851562 12.527344 C 140.117188 12.527344 141.097656 12.8125 141.792969 13.382812 C 142.488281 13.953125 142.835938 14.855469 142.835938 16.089844 L 142.835938 20.179688 L 140.117188 20.179688 Z M 137.953125 20.308594 C 137.34375 20.308594 136.832031 20.203125 136.414062 19.996094 C 136 19.789062 135.6875 19.507812 135.476562 19.15625 C 135.265625 18.804688 135.15625 18.410156 135.15625 17.984375 C 135.15625 17.507812 135.277344 17.101562 135.519531 16.761719 C 135.761719 16.421875 136.132812 16.164062 136.636719 15.984375 C 137.140625 15.808594 137.78125 15.714844 138.554688 15.714844 L 140.210938 15.714844 L 140.210938 17.167969 L 139 17.167969 C 138.632812 17.167969 138.367188 17.226562 138.207031 17.34375 C 138.046875 17.460938 137.96875 17.632812 137.96875 17.851562 C 137.96875 18.042969 138.042969 18.203125 138.191406 18.332031 C 138.34375 18.457031 138.546875 18.519531 138.808594 18.519531 C 139.050781 18.519531 139.273438 18.457031 139.476562 18.332031 C 139.675781 18.207031 139.824219 18.007812 139.914062 17.742188 L 140.300781 18.683594 C 140.171875 19.226562 139.910156 19.632812 139.519531 19.902344 C 139.128906 20.175781 138.605469 20.308594 137.953125 20.308594 Z M 137.953125 20.308594 "/>
<path style=" stroke:none;fill-rule:evenodd;fill:rgb(0%,0%,0%);fill-opacity:1;" d="M 144.304688 9.945312 L 147.222656 9.945312 L 147.222656 20.179688 L 144.304688 20.179688 Z M 144.304688 9.945312 "/>
</g>
</svg>
