<?xml version="1.0" encoding="UTF-8"?>
<svg xmlns="http://www.w3.org/2000/svg" xmlns:xlink="http://www.w3.org/1999/xlink" width="101px" height="22px" viewBox="0 0 101 22" version="1.1">
<g id="surface1">
<path style=" stroke:none;fill-rule:evenodd;fill:rgb(20.784314%,20.784314%,20.784314%);fill-opacity:1;" d="M 33.699219 6.992188 L 42.78125 6.992188 C 43.5 6.992188 44.085938 7.574219 44.085938 8.292969 L 44.085938 10.246094 L 33.699219 10.246094 C 32.980469 10.246094 32.398438 9.660156 32.398438 8.941406 L 32.398438 8.292969 C 32.398438 7.574219 32.980469 6.992188 33.699219 6.992188 Z M 33.699219 6.992188 "/>
<path style=" stroke:none;fill-rule:nonzero;fill:rgb(20.784314%,20.784314%,20.784314%);fill-opacity:1;" d="M 35.371094 21.800781 L 35.371094 6.996094 L 43.152344 6.996094 C 45.160156 6.996094 46.648438 7.355469 47.613281 8.078125 C 48.582031 8.800781 49.066406 9.730469 49.066406 10.863281 C 49.066406 11.617188 48.863281 12.28125 48.453125 12.863281 C 48.042969 13.445312 47.457031 13.902344 46.691406 14.238281 C 45.925781 14.570312 44.996094 14.734375 43.898438 14.734375 L 44.316406 13.648438 C 45.429688 13.648438 46.390625 13.808594 47.207031 14.128906 C 48.019531 14.449219 48.652344 14.914062 49.101562 15.523438 C 49.550781 16.132812 49.773438 16.867188 49.773438 17.726562 C 49.773438 19.007812 49.246094 20.007812 48.195312 20.722656 C 47.140625 21.441406 45.601562 21.800781 43.574219 21.800781 Z M 39.972656 18.5 L 43.1875 18.5 C 43.808594 18.5 44.273438 18.390625 44.585938 18.171875 C 44.902344 17.957031 45.058594 17.628906 45.058594 17.199219 C 45.058594 16.769531 44.902344 16.441406 44.585938 16.226562 C 44.273438 16.007812 43.808594 15.898438 43.1875 15.898438 L 39.652344 15.898438 L 39.652344 12.761719 L 42.527344 12.761719 C 43.148438 12.761719 43.605469 12.65625 43.902344 12.445312 C 44.203125 12.234375 44.351562 11.929688 44.351562 11.53125 C 44.351562 11.117188 44.203125 10.808594 43.902344 10.605469 C 43.605469 10.398438 43.148438 10.296875 42.527344 10.296875 L 39.972656 10.296875 Z M 39.972656 18.5 "/>
<path style=" stroke:none;fill-rule:nonzero;fill:rgb(20.784314%,20.784314%,20.784314%);fill-opacity:1;" d="M 51.53125 21.800781 L 51.53125 10.269531 L 56.011719 10.269531 L 56.011719 21.800781 Z M 53.761719 9.207031 C 52.941406 9.207031 52.285156 8.984375 51.792969 8.542969 C 51.296875 8.101562 51.050781 7.550781 51.050781 6.894531 C 51.050781 6.238281 51.296875 5.691406 51.792969 5.25 C 52.285156 4.804688 52.941406 4.585938 53.761719 4.585938 C 54.582031 4.585938 55.242188 4.792969 55.734375 5.207031 C 56.226562 5.625 56.472656 6.160156 56.472656 6.816406 C 56.472656 7.511719 56.226562 8.082031 55.734375 8.53125 C 55.242188 8.980469 54.585938 9.207031 53.761719 9.207031 Z M 53.761719 9.207031 "/>
<path style=" stroke:none;fill-rule:nonzero;fill:rgb(20.784314%,20.784314%,20.784314%);fill-opacity:1;" d="M 57.832031 21.800781 L 57.832031 19.203125 L 64.105469 12.128906 L 64.847656 13.5625 L 57.996094 13.5625 L 57.996094 10.269531 L 68.472656 10.269531 L 68.472656 12.863281 L 62.195312 19.941406 L 61.449219 18.507812 L 68.699219 18.507812 L 68.699219 21.800781 Z M 57.832031 21.800781 "/>
<path style=" stroke:none;fill-rule:nonzero;fill:rgb(20.784314%,20.784314%,20.784314%);fill-opacity:1;" d="M 76.257812 22 C 74.953125 22 73.792969 21.746094 72.777344 21.242188 C 71.761719 20.734375 70.964844 20.03125 70.386719 19.125 C 69.8125 18.222656 69.523438 17.1875 69.523438 16.027344 C 69.523438 14.859375 69.8125 13.828125 70.386719 12.933594 C 70.964844 12.035156 71.761719 11.335938 72.777344 10.828125 C 73.792969 10.324219 74.953125 10.070312 76.257812 10.070312 C 77.625 10.070312 78.800781 10.363281 79.777344 10.945312 C 80.757812 11.527344 81.441406 12.339844 81.828125 13.382812 L 78.363281 15.113281 C 78.109375 14.578125 77.800781 14.1875 77.433594 13.945312 C 77.066406 13.703125 76.667969 13.582031 76.238281 13.582031 C 75.84375 13.582031 75.476562 13.675781 75.144531 13.859375 C 74.808594 14.046875 74.546875 14.320312 74.351562 14.679688 C 74.15625 15.039062 74.058594 15.488281 74.058594 16.027344 C 74.058594 16.566406 74.15625 17.015625 74.351562 17.382812 C 74.546875 17.75 74.808594 18.023438 75.144531 18.210938 C 75.476562 18.394531 75.84375 18.488281 76.238281 18.488281 C 76.667969 18.488281 77.066406 18.367188 77.433594 18.125 C 77.800781 17.882812 78.109375 17.496094 78.363281 16.957031 L 81.828125 18.6875 C 81.441406 19.726562 80.757812 20.539062 79.777344 21.125 C 78.800781 21.707031 77.625 22 76.257812 22 Z M 76.257812 22 "/>
<path style=" stroke:none;fill-rule:nonzero;fill:rgb(20.784314%,20.784314%,20.784314%);fill-opacity:1;" d="M 90.097656 21.800781 L 90.097656 19.714844 L 89.789062 19.175781 L 89.789062 15.269531 C 89.789062 14.675781 89.605469 14.21875 89.242188 13.90625 C 88.878906 13.589844 88.296875 13.429688 87.496094 13.429688 C 86.957031 13.429688 86.417969 13.515625 85.871094 13.683594 C 85.324219 13.851562 84.855469 14.078125 84.46875 14.371094 L 83.011719 11.394531 C 83.679688 10.964844 84.480469 10.636719 85.410156 10.410156 C 86.339844 10.183594 87.257812 10.070312 88.160156 10.070312 C 90.101562 10.070312 91.601562 10.507812 92.667969 11.378906 C 93.734375 12.253906 94.269531 13.632812 94.269531 15.523438 L 94.269531 21.800781 Z M 86.78125 22 C 85.847656 22 85.0625 21.839844 84.425781 21.523438 C 83.792969 21.203125 83.308594 20.773438 82.984375 20.234375 C 82.65625 19.695312 82.492188 19.097656 82.492188 18.4375 C 82.492188 17.707031 82.675781 17.078125 83.046875 16.5625 C 83.417969 16.042969 83.988281 15.644531 84.757812 15.375 C 85.527344 15.101562 86.511719 14.964844 87.699219 14.964844 L 90.238281 14.964844 L 90.238281 17.191406 L 88.382812 17.191406 C 87.816406 17.191406 87.414062 17.28125 87.167969 17.464844 C 86.925781 17.644531 86.800781 17.902344 86.800781 18.242188 C 86.800781 18.539062 86.917969 18.78125 87.148438 18.972656 C 87.378906 19.164062 87.691406 19.261719 88.089844 19.261719 C 88.460938 19.261719 88.804688 19.164062 89.113281 18.972656 C 89.421875 18.777344 89.648438 18.476562 89.789062 18.070312 L 90.378906 19.507812 C 90.183594 20.339844 89.785156 20.964844 89.183594 21.378906 C 88.582031 21.792969 87.78125 22 86.78125 22 Z M 86.78125 22 "/>
<path style=" stroke:none;fill-rule:nonzero;fill:rgb(20.784314%,20.784314%,20.784314%);fill-opacity:1;" d="M 96.519531 6.109375 L 101 6.109375 L 101 21.800781 L 96.519531 21.800781 Z M 96.519531 6.109375 "/>
<path style=" stroke:none;fill-rule:evenodd;fill:rgb(20.784314%,20.784314%,20.784314%);fill-opacity:1;" d="M 6.769531 3.203125 L 6.769531 20.136719 C 6.769531 21.132812 7.578125 21.945312 8.578125 21.945312 L 11.292969 21.945312 L 11.292969 3.203125 C 11.292969 2.207031 10.484375 1.394531 9.484375 1.394531 L 8.578125 1.394531 C 7.578125 1.394531 6.769531 2.207031 6.769531 3.203125 Z M 6.769531 3.203125 "/>
<path style=" stroke:none;fill-rule:evenodd;fill:rgb(20.784314%,20.784314%,20.784314%);fill-opacity:1;" d="M 16.980469 7.808594 L 16.980469 13.953125 L 12.457031 13.953125 L 12.457031 7.808594 C 12.457031 6.808594 13.269531 6 14.265625 6 L 15.171875 6 C 16.171875 6 16.980469 6.808594 16.980469 7.808594 Z M 16.980469 7.808594 "/>
<path style=" stroke:none;fill-rule:evenodd;fill:rgb(20.784314%,20.784314%,20.784314%);fill-opacity:1;" d="M 22.671875 9.753906 L 22.671875 13.953125 L 18.144531 13.953125 L 18.144531 9.753906 C 18.144531 8.757812 18.957031 7.945312 19.953125 7.945312 L 20.859375 7.945312 C 21.859375 7.945312 22.671875 8.757812 22.671875 9.753906 Z M 22.671875 9.753906 "/>
<path style=" stroke:none;fill-rule:evenodd;fill:rgb(20.784314%,20.784314%,20.784314%);fill-opacity:1;" d="M 28.359375 12.171875 L 28.359375 20.125 C 28.359375 21.121094 27.546875 21.933594 26.546875 21.933594 L 23.832031 21.933594 L 23.832031 12.171875 C 23.832031 11.171875 24.644531 10.359375 25.644531 10.359375 L 26.546875 10.359375 C 27.546875 10.359375 28.359375 11.171875 28.359375 12.171875 Z M 28.359375 12.171875 "/>
<path style=" stroke:none;fill-rule:evenodd;fill:rgb(20.784314%,20.784314%,20.784314%);fill-opacity:1;" d="M 10.578125 21.945312 L 10.578125 17.417969 L 24.175781 17.417969 L 24.175781 21.945312 Z M 10.578125 21.945312 "/>
<path style=" stroke:none;fill-rule:evenodd;fill:rgb(20.784314%,20.784314%,20.784314%);fill-opacity:1;" d="M 3.664062 11.246094 L 5.605469 13.0625 L 5.605469 19.257812 L 0.574219 14.554688 C -0.15625 13.871094 -0.195312 12.722656 0.488281 11.996094 L 1.105469 11.332031 C 1.789062 10.605469 2.933594 10.566406 3.664062 11.246094 Z M 3.664062 11.246094 "/>
</g>
</svg>
