<?xml version="1.0" encoding="UTF-8" standalone="no"?>
<!DOCTYPE svg PUBLIC "-//W3C//DTD SVG 1.1//EN" "http://www.w3.org/Graphics/SVG/1.1/DTD/svg11.dtd">
<svg width="100%" height="100%" viewBox="0 0 40 11" version="1.1" xmlns="http://www.w3.org/2000/svg" xmlns:xlink="http://www.w3.org/1999/xlink" xml:space="preserve" xmlns:serif="http://www.serif.com/" style="fill-rule:evenodd;clip-rule:evenodd;stroke-linejoin:round;stroke-miterlimit:2;">
    <g transform="matrix(1,0,0,1,-9940.900098,-1011.476544)">
        <g id="cal.svg" transform="matrix(1,0,0,0.499485,-5724.934521,1011.476544)">
            <rect x="15665.835" y="0" width="40" height="21" style="fill:none;"/>
            <clipPath id="_clip1">
                <rect x="15665.835" y="0" width="40" height="21"/>
            </clipPath>
            <g clip-path="url(#_clip1)">
                <g transform="matrix(0.027464,0,0,0.054985,15632.275398,-44.484508)">
                    <g>
                        <g transform="matrix(0,-0.591415,0.466221,0,1091.967046,1361.872942)">
                            <path d="M838.052,338.028L838.052,751.736C838.052,784.438 817.123,810.988 791.344,810.988L721.281,810.988L721.281,338.028C721.281,305.327 742.21,278.777 767.989,278.777L791.344,278.777C817.123,278.777 838.052,305.327 838.052,338.028Z" style="fill:white;"/>
                        </g>
                        <g transform="matrix(0.793178,0,0,0.792274,269.526791,320.717898)">
                            <path d="M1280.408,1085.337L1280.408,688.671L1488.613,688.671C1542.358,688.671 1582.181,698.34 1608.083,717.677C1633.984,737.015 1646.935,761.889 1646.935,792.3C1646.935,812.464 1641.457,830.337 1630.501,845.921C1619.546,861.504 1603.83,873.758 1583.353,882.683C1562.876,891.608 1537.969,896.071 1508.633,896.071L1519.824,866.949C1549.586,866.949 1575.363,871.247 1597.156,879.841C1618.955,888.436 1635.852,900.893 1647.847,917.215C1659.847,933.53 1665.847,953.186 1665.847,976.183C1665.847,1010.514 1651.76,1037.289 1623.586,1056.508C1595.418,1075.728 1554.205,1085.337 1499.947,1085.337L1280.408,1085.337ZM1403.569,996.902L1489.596,996.902C1506.159,996.902 1518.638,993.989 1527.031,988.163C1535.431,982.331 1539.631,973.636 1539.631,962.079C1539.631,950.521 1535.431,941.817 1527.031,935.968C1518.638,930.112 1506.159,927.184 1489.596,927.184L1394.998,927.184L1394.998,843.211L1471.879,843.211C1488.495,843.211 1500.788,840.381 1508.756,834.72C1516.731,829.06 1520.718,820.872 1520.718,810.159C1520.718,799.121 1516.731,790.854 1508.756,785.358C1500.788,779.857 1488.495,777.106 1471.879,777.106L1403.569,777.106L1403.569,996.902Z" style="fill:white;fill-rule:nonzero;"/>
                        </g>
                        <g transform="matrix(0.793178,0,0,0.792274,269.526791,320.717898)">
                            <path d="M1712.916,1085.337L1712.916,776.424L1832.819,776.424L1832.819,1085.337L1712.916,1085.337ZM1772.646,747.905C1750.676,747.905 1733.089,741.979 1719.884,730.126C1706.68,718.267 1700.077,703.549 1700.077,685.97C1700.077,668.398 1706.68,653.685 1719.884,641.832C1733.089,629.974 1750.676,624.044 1772.646,624.044C1794.616,624.044 1812.204,629.619 1825.408,640.77C1838.613,651.914 1845.215,666.273 1845.215,683.845C1845.215,702.463 1838.624,717.795 1825.443,729.843C1812.263,741.884 1794.663,747.905 1772.646,747.905Z" style="fill:white;fill-rule:nonzero;"/>
                        </g>
                        <g transform="matrix(0.793178,0,0,0.792274,269.526791,320.717898)">
                            <path d="M1881.508,1085.337L1881.508,1015.823L2049.507,826.238L2069.349,864.647L1885.909,864.647L1885.909,776.424L2166.364,776.424L2166.364,845.939L1998.374,1035.524L1978.39,997.115L2172.385,997.115L2172.385,1085.337L1881.508,1085.337Z" style="fill:white;fill-rule:nonzero;"/>
                        </g>
                        <g transform="matrix(0.793178,0,0,0.792274,269.526791,320.717898)">
                            <path d="M2374.738,1090.721C2339.788,1090.721 2308.722,1083.944 2281.539,1070.392C2254.363,1056.839 2233.054,1037.95 2217.612,1013.725C2202.171,989.5 2194.45,961.804 2194.45,930.637C2194.45,899.418 2202.171,871.79 2217.612,847.754C2233.054,823.718 2254.363,804.923 2281.539,791.37C2308.722,777.818 2339.788,771.041 2374.738,771.041C2411.347,771.041 2442.756,778.859 2468.964,794.496C2495.179,810.126 2513.48,831.899 2523.869,859.813L2431.104,906.156C2424.304,891.8 2416.005,881.376 2406.206,874.883C2396.413,868.39 2385.735,865.143 2374.172,865.143C2363.6,865.143 2353.842,867.634 2344.9,872.616C2335.957,877.592 2328.891,884.897 2323.703,894.53C2318.514,904.158 2315.92,916.193 2315.92,930.637C2315.92,945.082 2318.514,957.2 2323.703,966.993C2328.891,976.785 2335.957,984.173 2344.9,989.155C2353.842,994.131 2363.6,996.619 2374.172,996.619C2385.735,996.619 2396.413,993.384 2406.206,986.915C2416.005,980.445 2424.304,970.009 2431.104,955.606L2523.869,1001.949C2513.48,1029.816 2495.179,1051.579 2468.964,1067.24C2442.756,1082.894 2411.347,1090.721 2374.738,1090.721Z" style="fill:white;fill-rule:nonzero;"/>
                        </g>
                        <g transform="matrix(0.793178,0,0,0.792274,269.526791,320.717898)">
                            <path d="M2745.17,1085.337L2745.17,1029.459L2736.874,1015.009L2736.874,910.317C2736.874,894.409 2732.013,882.232 2722.291,873.785C2712.569,865.332 2696.989,861.106 2675.55,861.106C2661.153,861.106 2646.635,863.349 2631.996,867.835C2617.363,872.321 2604.852,878.457 2594.463,886.243L2555.558,806.529C2573.414,795.054 2594.797,786.27 2619.706,780.179C2644.622,774.087 2669.169,771.041 2693.347,771.041C2745.25,771.041 2785.465,782.743 2813.993,806.148C2842.522,829.547 2856.786,866.56 2856.786,917.188L2856.786,1085.337L2745.17,1085.337ZM2656.354,1090.721C2631.367,1090.721 2610.374,1086.447 2593.374,1077.9C2576.374,1069.353 2563.494,1057.866 2554.735,1043.44C2545.981,1029.013 2541.604,1012.946 2541.604,995.237C2541.604,975.634 2546.562,958.879 2556.479,944.972C2566.396,931.065 2581.66,920.464 2602.273,913.168C2622.891,905.872 2649.138,902.224 2681.013,902.224L2748.924,902.224L2748.924,961.884L2699.235,961.884C2684.135,961.884 2673.316,964.304 2666.775,969.144C2660.241,973.979 2656.974,980.926 2656.974,989.987C2656.974,997.962 2660.052,1004.511 2666.209,1009.634C2672.365,1014.752 2680.777,1017.311 2691.443,1017.311C2701.395,1017.311 2710.512,1014.728 2718.793,1009.564C2727.075,1004.393 2733.102,996.332 2736.874,985.383L2752.678,1023.987C2747.484,1046.282 2736.835,1062.978 2720.733,1074.075C2704.636,1085.172 2683.176,1090.721 2656.354,1090.721Z" style="fill:white;fill-rule:nonzero;"/>
                        </g>
                        <g transform="matrix(0.793178,0,0,0.792274,269.526791,320.717898)">
                            <rect x="2917.083" y="664.871" width="119.903" height="420.467" style="fill:white;fill-rule:nonzero;"/>
                        </g>
                    </g>
                </g>
            </g>
        </g>
    </g>
</svg>
